<?xml version="1.0" encoding="utf-8"?>
<!DOCTYPE svg PUBLIC "-//W3C//DTD SVG 1.1//EN" "http://www.w3.org/Graphics/SVG/1.1/DTD/svg11.dtd">
<svg version="1.1" id="Layer_1" xmlns="http://www.w3.org/2000/svg" xmlns:xlink="http://www.w3.org/1999/xlink" x="0px" y="0px"
	 viewBox="0 0 1920 1374" enable-background="new 0 0 1920 1374" xml:space="preserve">
<g>
	<radialGradient id="SVGID_1_" cx="960" cy="687" r="834.7362" gradientUnits="userSpaceOnUse">
		<stop  offset="0.0056" style="stop-color:#7DA7D9"/>
		<stop  offset="0.026" style="stop-color:#8AAFDD"/>
		<stop  offset="0.0763" style="stop-color:#A4BFE4"/>
		<stop  offset="0.1213" style="stop-color:#B4C9E8"/>
		<stop  offset="0.1561" style="stop-color:#BACDEA"/>
		<stop  offset="0.2167" style="stop-color:#A5C0E4"/>
		<stop  offset="0.319" style="stop-color:#86ACDB"/>
		<stop  offset="0.3763" style="stop-color:#7AA5D8"/>
		<stop  offset="0.4224" style="stop-color:#6B97C7"/>
		<stop  offset="0.5296" style="stop-color:#4D7DA6"/>
		<stop  offset="0.6398" style="stop-color:#35688C"/>
		<stop  offset="0.7529" style="stop-color:#24597A"/>
		<stop  offset="0.8705" style="stop-color:#1A506F"/>
		<stop  offset="1" style="stop-color:#174D6B"/>
	</radialGradient>
	<rect fill="url(#SVGID_1_)" width="1920" height="1374"/>
	<g>
		<path fill="#41210A" d="M1909.71,1001.05c0.02,13.71,0.03,27.43,0.01,41.14C1773.8,1063.8,1636.41,1076.03,1498.8199,1078.8
			c5.0601-3.7301,8.67-9.1101,11.03-14.88c3.3101-8.28,5.3-17.12,5.47-26.04c40.1101-0.89,80.1901-2.86,120.2201-5.52
			c2.02,9.86,5.33,20.22,13.1499,27.0601c3.51,3.3999,8.41,5.5,13.3601,4.86c5.6699-0.39,10.2699-4.3101,13.7-8.55
			c3.54-4.14,5.04-9.49,7.88-14.0699c5.25,5.23,10.86,10.88,18.39,12.47c5.27,1.39,11.1799-0.14,14.9199-4.1801
			c5.8-5.35,6.77-13.58,8.16-20.9099c8.61,3.8199,19.4,7.7799,28.14,2.1799c4.39-2.4,4.8-8.8799,9.85-10.28
			C1812.12,1015.57,1860.99,1008.74,1909.71,1001.05z"/>
		<path fill="#41210A" d="M1898.67,1183.46c0.23,13.2101,0.1,26.4301,0.0599,39.64c-133.76,26.1901-269.49,42.88-405.75,47.55
			c-103.78,2.9-207.8099-0.55-311.03-11.9c-56.3199-6.05-112.33-14.72-168.02-24.99c4.86-4.71,8.46-10.48,10.78-16.8201
			c4.4401,3.3101,8.05,7.9901,13.5801,9.6001c4.86,2.0399,10.83,1.1699,14.5699-2.66c4.92-4.52,5.53-11.53,6.96-17.65
			c7.77,4.03,18.5701,6.85,25.62-0.0599c20.92,2.84,41.7001,6.6699,62.6801,9.0499c52.11,6.25,104.4,11.28,156.83,13.78
			c83.9501,4.11,168.14,5.14,252.0801,0.14c23.48-1.76,47-3.08,70.46-4.98c12.6-3.42,25.71-3.3401,38.61-4.78
			C1744.25,1211.88,1821.45,1197.1899,1898.67,1183.46z"/>
		<path fill="#603814" d="M1858.67,670.95c1.5699,82.96-23.36,166.87-73.1801,233.56c-16.1899,21.67-34.8099,41.61-55.86,58.62
			c11.3099,8.83,21.17,19.9,26.8099,33.23c3.3701,7.77,5.2101,16.44,3.6101,24.88c0.76-0.07,2.2799-0.23,3.0399-0.3
			c-5.0499,1.4-5.46,7.8799-9.85,10.28c-8.74,5.6-19.53,1.64-28.14-2.1799c-1.39,7.33-2.36,15.5599-8.16,20.9099
			c-3.74,4.04-9.6499,5.5701-14.9199,4.1801c-7.53-1.59-13.14-7.24-18.39-12.47c-2.84,4.58-4.34,9.9299-7.88,14.0699
			c-3.4301,4.24-8.03,8.16-13.7,8.55c-4.9501,0.64-9.8501-1.4601-13.3601-4.86c-7.8199-6.8401-11.1299-17.2001-13.1499-27.0601
			c-1.0901-5.34-1.4-10.8-1.36-16.23c-38.1801,12.61-79.0801,16.83-119.03,12.3099c0.1,3.13,0.2,6.28,0.1699,9.4401
			c-0.1699,8.92-2.1599,17.76-5.47,26.04c-2.36,5.7699-5.97,11.1499-11.03,14.88c-3.34,2.5299-7.6699,3.85-11.84,3.2799
			c-3-0.4099-5.59-2.0199-8.37-3.0299c-5.65-5.49-9.46-12.41-12.46-19.62c-4.4301,4.2699-8.89,8.8199-14.72,11.12
			c-6.16,2.76-14.38,2.4199-19.1101-2.8601c-5.3099-5.62-6.8199-13.47-7.7699-20.86c-6.9801,2.65-14.24,6.02-21.9,4.64
			c-6.6801-0.96-11.9501-6.61-13.24-13.11c-1.29-5.64-0.41-11.49,1.09-16.99c3-10.63,8.97-20.22,16.26-28.43
			c-63.7-36.03-112.84-95.07-141.39-162.06c-37.6899-88.11-40.99-190.16-10.01-280.76c23.58-69.06,67.86-131.83,128.1901-173.49
			c1.5299-17.95,5.99-35.77,14.1-51.91c5.24-10.24,11.91-19.97,20.84-27.33c4.97-4.06,10.96-7.36,17.51-7.56
			c6.48,0.11,12.13,4.43,15.71,9.58c7.51,11.23,9.4501,25.06,11.11,38.19c18.27-5.74,37.14-9.44,56.0801-12.1
			c25.1699-3.11,50.84-2.02,75.66,3.13c5.86,1.27,11.7,2.64,17.59,3.83c1.03-10.12,2.8199-20.29,6.61-29.77
			c2.87-7.08,7.65-14.05,15.05-16.85c7.1-2.5,14.6399,0.79,20.3999,4.94c10.4601,7.75,17.9301,18.8,23.6901,30.33
			c6.5699,13.57,10.72,28.26,12.61,43.21c32.53,19.31,61.5,44.49,85.38,73.81C1829.2,503.19,1857.5699,587.14,1858.67,670.95z
			 M1811.79,806.77c9.7999-42.35,13.86-86.4,8.52-129.67c-1.28-11.85-4.7101-23.29-7.8701-34.73
			c-4.8199-16.09-9.8799-32.24-17.62-47.2c-3.0499-5.61-6.33-11.58-11.85-15.1c-2.72-1.73-5.9099-0.76-8.6699,0.23
			c2.3899-6.22,5.6-12.12,7.45-18.55c4.6899-14.41,6.34-29.99,3.45-44.94c-2.58-14.02-8.98-27.2-17.87-38.29
			c-10.6899-13.51-24.7899-23.93-39.9399-31.94c-28.5-17.59-63.5601-23.54-96.4301-17.81c-31.1,5.19-60.8099,21.45-79.88,46.86
			c-13.59-18.13-32.74-31.76-53.85-39.77c-37.61-14.31-81.54-11.99-116.89,7.51c-7.48,4.43-15.3199,8.3-22.3199,13.49
			c-14.85,10.49-27.59,24.41-35.09,41.09c-8.8201,19.02-9.42,41.21-3.3301,61.12c2,7.37,5.49,14.17,8.24,21.26
			c-2.5399-0.88-5.45-1.99-8-0.55c-4.88,2.67-7.99,7.55-10.75,12.21c-6.0599,10.75-10.35,22.39-14.26,34.06
			c-4.45,13.57-8.5199,27.29-11.46,41.27c-2.83,16.41-3.9,33.09-3.88,49.72c0.3201,42.55,7.5601,85.02,21.0601,125.35
			c10.3099,30.96,25.7699,60.27,46.33,85.67c22.3,27.65,50.1,50.89,81.5,67.55c37.53,19.92,80.17,29.9,122.63,29.08
			c47.8199,0.9801,95.89-11.8499,136.62-36.9999c32.45-19.85,60.36-46.94,81.53-78.51C1790.05,878.31,1803.26,842.88,1811.79,806.77
			z"/>
		<path fill="#B4D232" d="M1820.3101,677.1c5.34,43.27,1.2799,87.32-8.52,129.67c-8.53,36.11-21.74,71.54-42.63,102.41
			c-21.17,31.57-49.0801,58.66-81.53,78.51c-40.73,25.15-88.8,37.98-136.62,36.9999c-42.46,0.8201-85.1-9.1599-122.63-29.08
			c-31.4-16.66-59.2-39.9-81.5-67.55c-20.5601-25.4-36.02-54.71-46.33-85.67c-13.5-40.33-20.74-82.8-21.0601-125.35
			c-0.02-16.63,1.05-33.31,3.88-49.72c2.9401-13.98,7.01-27.7,11.46-41.27c3.91-11.67,8.2001-23.31,14.26-34.06
			c2.76-4.66,5.87-9.54,10.75-12.21c2.55-1.44,5.4601-0.33,8,0.55c-2.75-7.09-6.24-13.89-8.24-21.26
			c-6.09-19.91-5.49-42.1,3.3301-61.12c7.5-16.68,20.24-30.6,35.09-41.09c7-5.19,14.84-9.06,22.3199-13.49
			c35.35-19.5,79.28-21.82,116.89-7.51c21.11,8.01,40.26,21.64,53.85,39.77c19.0701-25.41,48.78-41.67,79.88-46.86
			c32.87-5.73,67.9301,0.22,96.4301,17.81c15.15,8.01,29.25,18.43,39.9399,31.94c8.89,11.09,15.29,24.27,17.87,38.29
			c2.89,14.95,1.24,30.53-3.45,44.94c-1.85,6.43-5.0601,12.33-7.45,18.55c2.76-0.99,5.95-1.96,8.6699-0.23
			c5.52,3.52,8.8,9.49,11.85,15.1c7.7401,14.96,12.8,31.11,17.62,47.2C1815.6,653.81,1819.03,665.25,1820.3101,677.1z
			 M1763.78,746.71c4.78-13.2401,6.48-27.38,6.71-41.39c-1.41-0.05-2.78-0.08-4.12-0.11c-0.22,15.95-2.37,32.27-9.3099,46.8
			c-3.2401,6.38-7.55,13.14-14.6201,15.64c-4.5199,1.66-9.48-0.19-12.9199-3.2401c-5.39-4.65-8.71-11.2-11.3-17.71
			c-5-13.17-6.9299-27.35-6.9299-41.38c-1.4-0.05-2.76-0.07-4.0901-0.09c0.12,17.37,2.66,35.25,10.78,50.82
			c3.47,6.41,8.3301,12.72,15.38,15.37c5.66,2.13,12.15,0.47,16.7001-3.33C1756.74,762.61,1760.8101,754.68,1763.78,746.71z
			 M1736.91,581.8c10.63-17.44,13.59-39.24,8.37-58.94c-4.6801-18.83-17.04-35.48-33.4601-45.75
			c-14.5099-9.41-32.2799-13.17-49.4099-11.45c-15.29,1.72-30.03,8.04-41.6801,18.1c-15.7999,13.43-25.73,33.5-26.8099,54.21
			c-0.8101,15.8101,3.1,31.97,11.7799,45.28c9.8401,15.72,25.53,27.69,43.3401,32.89c18.4099,5.51,38.9399,3.79,56.0599-4.97
			C1718.3101,604.82,1729.3101,594.26,1736.91,581.8z M1723.22,796.84c-1.38-0.01-2.74-0.01-4.0699,0.0099
			c-0.4401,16.6801-2.6,33.84-10.42,48.83c-3.1699,5.82-7.54,11.83-14.1899,13.81c-5.74,1.59-11.4-1.81-15.01-6.04
			c-7.2001-8.57-10.66-19.56-12.99-30.32c-1.9-8.64-2.29-17.48-2.7101-26.28c-1.36-0.02-2.7-0.03-4.0199-0.03
			c0.2799,14.56,1.98,29.29,7.2599,42.96c2.9501,7.41,6.8301,14.83,13.12,19.96c4.5701,3.8,11.0801,5.35,16.76,3.31
			c6.4601-2.36,11.05-7.92,14.4301-13.69C1720.41,833.47,1722.77,814.83,1723.22,796.84z M1674.02,740.97
			c3.35-11.59,4.73-23.68,4.75-35.73c-1.4,0-2.76,0.01-4.1,0.03c-0.16,16.75-2.51,34.04-10.42,49.03
			c-3.34,6.02-8.02,12.32-15.16,13.81c-5.4399,0.93-10.48-2.43-13.9-6.34c-5.2799-6.11-8.3899-13.75-10.74-21.37
			c-3.4199-11.38-4.7799-23.31-4.83-35.16c-1.4,0-2.77,0.03-4.12,0.06c0.14,14.07,1.92,28.28,6.75,41.56
			c2.62,7.09,6.13,14.06,11.59,19.4c3.26,3.23,7.49,5.71,12.16,6.04c5.92,0.53,11.45-2.75,15.4-6.91
			C1667.66,758.52,1671.41,749.79,1674.02,740.97z M1668.47,935.42c7.76-15.35,10.17-32.85,10.28-49.88
			c-1.39,0-2.73,0.02-4.0699,0.05c-0.02,11.06-1.2301,22.17-4.12,32.87c-2.26,8.0099-5.3,16-10.54,22.56
			c-3.05,3.71-7.09,7.21-12.09,7.55c-4.87,0.28-9.2401-2.56-12.3601-6.04c-5.5699-6.2401-8.7999-14.14-11.21-22.03
			c-3.3199-11.32-4.71-23.15-4.73-34.92c-1.03-0.01-3.09-0.02-4.11-0.02c0.13,13.97,1.8199,28.1,6.62,41.3
			c3,8.16,7.15,16.34,14.1,21.84c4.73,3.82,11.5,5.18,17.17,2.72C1660.39,948.44,1665.0601,941.94,1668.47,935.42z M1631.5,796.73
			c-1.22,0.47-4.1899-0.87-4.0699,1.27c-0.2401,12.41-1.75,24.9-5.66,36.72c-2.5601,7.44-5.9401,14.8701-11.66,20.4301
			c-2.95,2.84-6.92,5.1-11.14,4.67c-3.5599-0.18-6.74-2.15-9.24-4.55c-5.01-4.78-8.1799-11.11-10.63-17.5
			c-4.91-13.08-6.6899-27.14-6.78-41.05c-1.3999,0.08-2.7799,0.1801-4.1399,0.29c0.24,14.45,2.0099,29.06,7.21,42.64
			c2.8099,7.23,6.5699,14.38,12.54,19.5099c3.3199,2.9301,7.62,4.92,12.12,4.76c6.21,0.13,11.5699-3.87,15.4099-8.42
			c6.02-7.35,9.53-16.38,12-25.46C1630.29,819.18,1631.4301,807.93,1631.5,796.73z M1587.23,885.57c-1.4-0.02-2.77-0.02-4.12-0.01
			c-0.26,8.5-0.67,17.03-2.46,25.37c-2.14,10.49-5.4,21.12-11.97,29.74c-3.12,3.97-7.4701,7.68-12.7401,7.9
			c-4.62,0.21-8.6899-2.57-11.73-5.77c-4.5599-4.92-7.52-11.08-9.84-17.31c-4.5599-12.75-6.34-26.37-6.3099-39.87
			c-1.4401-0.03-2.8601-0.04-4.26-0.05c0.36,13,1.61,26.12,5.76,38.52c2.9099,8.92,7.11,17.87,14.3799,24.0699
			c4.3301,3.78,10.53,5.57,16.13,3.86c6.8301-2.03,11.64-7.87,15.2101-13.74C1584.39,922.36,1586.83,903.63,1587.23,885.57z
			 M1587.1,705.2c-1.33,0-2.65,0.02-3.9399,0.04c-0.3,12.78-1.64,25.68-5.75,37.85c-2.41,7.0699-5.5701,14.1-10.78,19.5699
			c-3.02,3.15-7.1,5.8-11.62,5.6201c-4.45-0.27-8.25-3.03-11.16-6.21c-4.7-5.16-7.59-11.65-9.89-18.16
			c-4.33-12.4-5.8099-25.58-6-38.65c-1.38-0.01-2.74-0.01-4.08,0c0.17,14.47,1.96,29.11,7.15,42.7c2.89,7.43,6.78,14.8,13,19.99
			c4.4399,3.74,10.73,5.55,16.37,3.66c7-2.36,11.91-8.43,15.4399-14.65C1584.4,741.21,1587.03,722.91,1587.1,705.2z M1589.9,605.01
			c-12.29-0.41-24.6-0.06-36.89-0.17c-9,0.11-18-0.26-26.98,0.21c11.8099,25.26,23.72,50.47,35.47,75.75
			c1.8101-3.53,2.9301-7.34,4.36-11.02C1573.88,648.19,1581.88,626.6,1589.9,605.01z M1533.54,837.43
			c4.52-13.03,6.27-26.88,6.2799-40.63c-1.35,0.01-2.6899,0.02-4,0.05c-0.2599,16.88-2.63,34.28-10.6499,49.37
			c-3.03,5.35-7.02,10.77-12.99,12.9901c-4.3301,1.57-9.2101,0.16-12.64-2.71c-6.3301-5.18-9.9701-12.81-12.6801-20.35
			c-4.39-12.56-6.12-25.9301-6.15-39.2c-1.38-0.07-2.75-0.12-4.09-0.17c0.01,12.9399,1.62,25.95,5.51,38.3199
			c2.61,7.9,6.09,15.76,11.85,21.9c3.63,3.86,8.5601,6.98,14.03,6.92c4.98,0.2,9.71-2.24,13.21-5.65
			C1527.11,852.58,1530.86,845.07,1533.54,837.43z M1510.23,580.19c9.2001-16.16,12.1801-35.71,8.3201-53.88
			c-4.0601-19.73-16.4401-37.55-33.27-48.54c-14.8301-9.86-33.1-14-50.76-12.07c-16.47,1.88-32.21,9.18-44.1801,20.64
			c-15.4199,14.41-24.5399,35.47-24.02,56.6c-0.1399,14.89,4.51,29.73,12.8301,42.05c10.89,16.37,28.25,28.36,47.51,32.47
			c15.9299,3.74,32.97,1.64,47.9199-4.83C1489.42,605.86,1502.3199,594.53,1510.23,580.19z M1489.37,734.89
			c2.15-9.76,3.33-19.78,3.0699-29.78c-1.35,0.04-2.6799,0.09-3.99,0.15c0.01,11.88-1.3999,23.82-4.7999,35.22
			c-2.1801,7.22-5.1801,14.33-9.88,20.28c-3.1901,3.87-7.5601,7.4-12.79,7.53c-4.98-0.06-9.1799-3.27-12.3099-6.87
			c-4.53-5.35-7.4-11.87-9.65-18.44c-3.9301-12.16-5.62-24.98-5.6-37.73c-1.4,0-2.78,0.01-4.13,0.03
			c0.12,13.8799,1.89,27.86,6.52,41c2.5499,7.11,6.0499,14.04,11.2999,19.56c4.0701,4.2,9.91,7.22,15.9,6.37
			c6.02-0.83,10.98-4.94,14.55-9.64C1483.71,754.49,1487.1,744.69,1489.37,734.89z M1492.5601,885.55
			c-1.02,0.01-3.0801,0.03-4.1101,0.04c0.03,11.28-1.2999,22.61-4.2899,33.5c-2.42,8.39-5.76,16.79-11.62,23.41
			c-2.9601,3.25-6.9501,6.08-11.52,6.08c-4.38,0.12-8.2001-2.53-11.13-5.52c-4.63-4.81-7.62-10.93-9.92-17.12
			c-4.71-12.89-6.48-26.68-6.58-40.35c-1.37-0.03-2.73-0.06-4.0601-0.07c0.05,14.03,1.88,28.18,6.61,41.45
			c2.6101,7.13,6.17,14.11,11.5601,19.57c4.37,4.42,10.8199,7.3,17.08,5.72c7.9601-1.95,13.3301-8.9,17.1001-15.74
			C1489.91,920.94,1492.37,902.97,1492.5601,885.55z M1445.33,796.86c-1.39-0.03-2.75-0.05-4.09-0.05
			c-0.29,16.25-2.4399,32.93-9.74,47.65c-3.26,6.29-7.75,12.91-14.88,15.05c-5.54,1.53-10.95-1.63-14.54-5.62
			c-5.5-6.22-8.76-14.05-11.1699-21.9c-3.38-11.37-4.79-23.27-4.74-35.12c-1.37-0.03-2.7301-0.06-4.0601-0.07
			c-0.09,14.56,1.9301,29.26,7.08,42.93c2.8301,7.23,6.6101,14.39,12.5901,19.51c4.26,3.78,10.23,5.68,15.85,4.26
			c7.42-1.96,12.51-8.32,16.22-14.66C1442.54,833.03,1445.03,814.65,1445.33,796.86z M1394.37,746.53
			c4.73-13.1801,6.42-27.2401,6.58-41.1801c-1.3999-0.05-2.7799-0.09-4.1399-0.11c0,12.8-1.6101,25.68-5.6201,37.87
			c-2.21,6.59-5.21,13.05-9.6899,18.41c-3.36,3.85-8.12,7.31-13.49,6.69c-7.29-1.17-12.1801-7.55-15.59-13.57
			c-8.05-15.11-10.41-32.52-10.7001-49.43c-1.02,0.03-3.0599,0.07-4.08,0.09c0.33,18.41,2.96,37.55,12.52,53.62
			c3.7899,6.15,9.4,12.07,16.84,13.27c5.98,0.95,11.85-2.03,15.98-6.19C1388.25,760.52,1391.76,753.61,1394.37,746.53z"/>
		<path fill="#613414" d="M1770.49,705.32c-0.23,14.01-1.9299,28.15-6.71,41.39c-2.97,7.97-7.04,15.9-13.72,21.38
			c-4.55,3.8-11.04,5.46-16.7001,3.33c-7.0499-2.65-11.91-8.96-15.38-15.37c-8.12-15.57-10.66-33.45-10.78-50.82
			c1.3301,0.02,2.6901,0.04,4.0901,0.09c0,14.03,1.9299,28.21,6.9299,41.38c2.5901,6.51,5.91,13.06,11.3,17.71
			c3.4399,3.05,8.4,4.9,12.9199,3.2401c7.0701-2.5,11.38-9.26,14.6201-15.64c6.9399-14.53,9.09-30.85,9.3099-46.8
			C1767.71,705.24,1769.08,705.27,1770.49,705.32z"/>
		<path fill="#FDEE21" d="M1745.28,522.86c5.22,19.7,2.26,41.5-8.37,58.94c-7.6,12.46-18.6,23.02-31.8101,29.37
			c-17.12,8.76-37.65,10.48-56.0599,4.97c-17.8101-5.2-33.5-17.17-43.3401-32.89c-8.6799-13.31-12.59-29.47-11.7799-45.28
			c1.08-20.71,11.01-40.78,26.8099-54.21c11.65-10.06,26.39-16.38,41.6801-18.1c17.13-1.72,34.9,2.04,49.4099,11.45
			C1728.24,487.38,1740.6,504.03,1745.28,522.86z M1706.58,571.54c12.8101-15.11,13.92-38.64,2.6901-54.93
			c-9.84-15.15-29.02-23.22-46.75-19.84c-8.12,1.51-15.86,5.17-22.0701,10.63c-12.23,10.5-18.22,27.64-15.0599,43.47
			c3.0599,17.56,17.3199,32.45,34.7,36.36C1676.92,591.48,1695.73,585.07,1706.58,571.54z"/>
		<path fill="#613514" d="M1719.15,796.85c1.33-0.02,2.6899-0.02,4.0699-0.0099c-0.45,17.99-2.8099,36.6299-11.84,52.52
			c-3.38,5.77-7.97,11.33-14.4301,13.69c-5.6799,2.04-12.1899,0.49-16.76-3.31c-6.2899-5.13-10.1699-12.55-13.12-19.96
			c-5.2799-13.67-6.98-28.4-7.2599-42.96c1.3199,0,2.6599,0.01,4.0199,0.03c0.42,8.8,0.8101,17.64,2.7101,26.28
			c2.33,10.76,5.7899,21.75,12.99,30.32c3.61,4.23,9.27,7.63,15.01,6.04c6.6499-1.98,11.02-7.99,14.1899-13.81
			C1716.55,830.69,1718.71,813.53,1719.15,796.85z"/>
		<path d="M1709.27,516.61c11.23,16.29,10.12,39.82-2.6901,54.93c-10.85,13.53-29.6599,19.94-46.49,15.69
			c-17.38-3.91-31.64-18.8-34.7-36.36c-3.16-15.83,2.83-32.97,15.0599-43.47c6.2101-5.46,13.9501-9.12,22.0701-10.63
			C1680.25,493.39,1699.4301,501.46,1709.27,516.61z M1704.86,530.91c2.9401-7.17,0.35-16.05-5.96-20.53
			c-4.37-3.23-10.23-4.09-15.41-2.62c-7.38,2.14-12.83,9.54-12.4,17.26c-0.0599,8.97,7.9701,17.03,16.9601,16.92
			C1695.28,542.41,1702.34,537.66,1704.86,530.91z"/>
		<path fill="#FFFFFF" d="M1698.9,510.38c6.3099,4.48,8.9,13.36,5.96,20.53c-2.52,6.75-9.58,11.5-16.8099,11.03
			c-8.99,0.11-17.02-7.95-16.9601-16.92c-0.4299-7.72,5.02-15.12,12.4-17.26C1688.67,506.29,1694.53,507.15,1698.9,510.38z"/>
		<path fill="#603515" d="M1678.77,705.24c-0.02,12.05-1.4,24.14-4.75,35.73c-2.61,8.82-6.36,17.55-12.62,24.42
			c-3.9501,4.16-9.48,7.44-15.4,6.91c-4.67-0.33-8.9-2.81-12.16-6.04c-5.46-5.34-8.97-12.31-11.59-19.4
			c-4.83-13.28-6.61-27.49-6.75-41.56c1.35-0.03,2.72-0.06,4.12-0.06c0.05,11.85,1.41,23.78,4.83,35.16
			c2.3501,7.62,5.4601,15.2599,10.74,21.37c3.42,3.91,8.4601,7.27,13.9,6.34c7.14-1.49,11.8201-7.79,15.16-13.81
			c7.91-14.99,10.26-32.28,10.42-49.03C1676.01,705.25,1677.37,705.24,1678.77,705.24z"/>
		<path fill="#613415" d="M1678.75,885.54c-0.11,17.03-2.52,34.53-10.28,49.88c-3.4099,6.52-8.08,13.02-15.0599,16
			c-5.67,2.46-12.4401,1.1-17.17-2.72c-6.95-5.5-11.1-13.68-14.1-21.84c-4.8-13.2-6.49-27.33-6.62-41.3c1.02,0,3.08,0.01,4.11,0.02
			c0.02,11.77,1.41,23.6,4.73,34.92c2.41,7.89,5.64,15.79,11.21,22.03c3.12,3.48,7.4901,6.3199,12.3601,6.04
			c5-0.34,9.0399-3.84,12.09-7.55c5.24-6.56,8.28-14.55,10.54-22.56c2.8899-10.7,4.1-21.81,4.12-32.87
			C1676.02,885.56,1677.36,885.54,1678.75,885.54z"/>
		<path fill="#613514" d="M1627.4301,798c-0.12-2.14,2.85-0.8,4.0699-1.27c-0.0699,11.2-1.21,22.45-4.04,33.31
			c-2.47,9.08-5.98,18.11-12,25.46c-3.84,4.55-9.2,8.55-15.4099,8.42c-4.5,0.16-8.8-1.83-12.12-4.76
			c-5.9701-5.1299-9.7301-12.28-12.54-19.5099c-5.2001-13.58-6.97-28.19-7.21-42.64c1.36-0.11,2.74-0.21,4.1399-0.29
			c0.0901,13.91,1.87,27.97,6.78,41.05c2.4501,6.39,5.62,12.72,10.63,17.5c2.5,2.4,5.6801,4.37,9.24,4.55
			c4.22,0.43,8.1901-1.83,11.14-4.67c5.72-5.56,9.1-12.9901,11.66-20.4301C1625.6801,822.9,1627.1899,810.41,1627.4301,798z"/>
		<path fill="#613515" d="M1583.11,885.56c1.35-0.01,2.72-0.01,4.12,0.01c-0.4,18.06-2.84,36.79-11.95,52.71
			c-3.5701,5.87-8.38,11.71-15.2101,13.74c-5.6,1.71-11.7999-0.08-16.13-3.86c-7.2699-6.2-11.47-15.15-14.3799-24.0699
			c-4.15-12.4-5.4-25.52-5.76-38.52c1.3999,0.01,2.8199,0.02,4.26,0.05c-0.03,13.5,1.75,27.12,6.3099,39.87
			c2.3199,6.23,5.28,12.39,9.84,17.31c3.04,3.2,7.11,5.98,11.73,5.77c5.27-0.22,9.6201-3.93,12.7401-7.9
			c6.5699-8.62,9.83-19.25,11.97-29.74C1582.4399,902.59,1582.85,894.06,1583.11,885.56z"/>
		<path fill="#603514" d="M1583.16,705.24c1.2899-0.02,2.61-0.04,3.9399-0.04c-0.0699,17.71-2.7,36.01-11.26,51.76
			c-3.5299,6.22-8.4399,12.29-15.4399,14.65c-5.64,1.89-11.9301,0.08-16.37-3.66c-6.22-5.19-10.11-12.56-13-19.99
			c-5.1901-13.59-6.98-28.23-7.15-42.7c1.34-0.01,2.7-0.01,4.08,0c0.1901,13.07,1.67,26.25,6,38.65c2.3,6.51,5.1901,13,9.89,18.16
			c2.91,3.18,6.7101,5.94,11.16,6.21c4.52,0.18,8.6-2.47,11.62-5.6201c5.21-5.47,8.37-12.5,10.78-19.5699
			C1581.52,730.92,1582.86,718.02,1583.16,705.24z"/>
		<path fill="#603814" d="M1553.01,604.84c12.29,0.11,24.6-0.2401,36.89,0.17c-8.02,21.59-16.02,43.18-24.04,64.77
			c-1.4299,3.68-2.5499,7.49-4.36,11.02c-11.75-25.28-23.66-50.49-35.47-75.75C1535.01,604.58,1544.01,604.95,1553.01,604.84z"/>
		<path fill="#603613" d="M1539.8199,796.8c-0.0099,13.75-1.7599,27.6-6.2799,40.63c-2.6801,7.64-6.4301,15.15-12.3201,20.84
			c-3.5,3.41-8.23,5.85-13.21,5.65c-5.47,0.06-10.4-3.06-14.03-6.92c-5.76-6.14-9.24-14-11.85-21.9
			c-3.89-12.37-5.5-25.38-5.51-38.3199c1.34,0.05,2.71,0.1,4.09,0.17c0.03,13.27,1.76,26.64,6.15,39.2
			c2.71,7.54,6.35,15.17,12.6801,20.35c3.4299,2.87,8.3099,4.28,12.64,2.71c5.97-2.22,9.96-7.64,12.99-12.9901
			c8.0199-15.09,10.39-32.49,10.6499-49.37C1537.13,796.82,1538.47,796.81,1539.8199,796.8z"/>
		<path fill="#FDEE21" d="M1518.55,526.31c3.86,18.17,0.88,37.72-8.3201,53.88c-7.91,14.34-20.8099,25.67-35.65,32.44
			c-14.95,6.47-31.99,8.57-47.9199,4.83c-19.26-4.11-36.62-16.1-47.51-32.47c-8.3201-12.32-12.97-27.16-12.8301-42.05
			c-0.5199-21.13,8.6001-42.19,24.02-56.6c11.9701-11.46,27.7101-18.76,44.1801-20.64c17.66-1.93,35.9299,2.21,50.76,12.07
			C1502.11,488.76,1514.49,506.58,1518.55,526.31z M1480.17,570c11.63-14.96,12.33-37.22,1.7899-52.95
			c-9.83-15.48-29.3199-23.8-47.3099-20.22c-20.8101,3.54-37.5701,22.98-37.5701,44.16c-1.0599,19.93,12.74,39.24,31.6901,45.2
			C1447.05,592.49,1468.83,585.68,1480.17,570z"/>
		<path fill="#603515" d="M1492.4399,705.11c0.26,10-0.9199,20.02-3.0699,29.78c-2.27,9.8-5.66,19.6-11.8099,27.68
			c-3.5701,4.7-8.53,8.81-14.55,9.64c-5.99,0.85-11.83-2.17-15.9-6.37c-5.25-5.52-8.75-12.45-11.2999-19.56
			c-4.63-13.14-6.4-27.1201-6.52-41c1.35-0.02,2.73-0.03,4.13-0.03c-0.02,12.75,1.6699,25.57,5.6,37.73
			c2.25,6.57,5.12,13.09,9.65,18.44c3.13,3.6,7.33,6.81,12.3099,6.87c5.23-0.13,9.6-3.66,12.79-7.53c4.7-5.95,7.7-13.06,9.88-20.28
			c3.4-11.4,4.8099-23.34,4.7999-35.22C1489.76,705.2,1491.09,705.15,1492.4399,705.11z"/>
		<path fill="#603514" d="M1488.45,885.59c1.03-0.01,3.0901-0.03,4.1101-0.04c-0.1901,17.42-2.65,35.39-10.88,50.97
			c-3.77,6.84-9.14,13.79-17.1001,15.74c-6.26,1.58-12.71-1.3-17.08-5.72c-5.39-5.46-8.95-12.44-11.5601-19.57
			c-4.73-13.27-6.5599-27.42-6.61-41.45c1.3301,0.01,2.6901,0.04,4.0601,0.07c0.1,13.67,1.87,27.46,6.58,40.35
			c2.3,6.19,5.29,12.31,9.92,17.12c2.9299,2.99,6.75,5.64,11.13,5.52c4.5699,0,8.5599-2.83,11.52-6.08
			c5.86-6.62,9.2-15.02,11.62-23.41C1487.15,908.2,1488.48,896.87,1488.45,885.59z"/>
		<path d="M1481.96,517.05c10.54,15.73,9.8401,37.99-1.7899,52.95c-11.3401,15.68-33.12,22.49-51.4,16.19
			c-18.9501-5.96-32.75-25.27-31.6901-45.2c0-21.18,16.76-40.62,37.5701-44.16C1452.64,493.25,1472.13,501.57,1481.96,517.05z
			 M1477.86,529.07c2.15-7.49-1.49-16.12-8.35-19.81c-3.92-2.29-8.73-2.68-13.09-1.65c-6.6001,1.69-11.89,7.61-12.79,14.38
			c-1.77,9.72,6.38,19.85,16.3099,19.93C1468,542.71,1475.9,536.85,1477.86,529.07z"/>
		<path fill="#FFFFFF" d="M1469.51,509.26c6.86,3.69,10.5,12.32,8.35,19.81c-1.96,7.78-9.86,13.64-17.92,12.85
			c-9.9299-0.08-18.08-10.21-16.3099-19.93c0.9-6.77,6.1899-12.69,12.79-14.38C1460.78,506.58,1465.59,506.97,1469.51,509.26z"/>
		<path fill="#41210A" d="M1466.15,1059.4301c3,7.21,6.8099,14.13,12.46,19.62c-104.0499,1.59-208.1799-2.52-311.85-11.4601
			c8.05-12.7999,15.03-26.27,20.9-40.21c67.1,6,134.4,9.74,201.75,10.98c1.2899,6.5,6.5599,12.15,13.24,13.11
			c7.66,1.38,14.9199-1.99,21.9-4.64c0.95,7.39,2.46,15.24,7.7699,20.86c4.7301,5.28,12.9501,5.6201,19.1101,2.8601
			C1457.26,1068.25,1461.72,1063.7,1466.15,1059.4301z"/>
		<path fill="#613515" d="M1441.24,796.81c1.34,0,2.7,0.02,4.09,0.05c-0.2999,17.79-2.7899,36.17-11.48,51.98
			c-3.71,6.34-8.7999,12.7-16.22,14.66c-5.62,1.42-11.59-0.48-15.85-4.26c-5.98-5.12-9.76-12.28-12.5901-19.51
			c-5.1499-13.67-7.1699-28.37-7.08-42.93c1.33,0.01,2.6901,0.04,4.0601,0.07c-0.05,11.85,1.36,23.75,4.74,35.12
			c2.4099,7.85,5.6699,15.68,11.1699,21.9c3.5901,3.99,9,7.15,14.54,5.62c7.13-2.14,11.62-8.76,14.88-15.05
			C1438.8,829.74,1440.95,813.06,1441.24,796.81z"/>
		<path fill="#613514" d="M1400.95,705.35c-0.1599,13.94-1.85,28-6.58,41.1801c-2.61,7.08-6.12,13.99-11.39,19.47
			c-4.13,4.16-10,7.14-15.98,6.19c-7.4399-1.2-13.05-7.12-16.84-13.27c-9.5601-16.07-12.1901-35.21-12.52-53.62
			c1.02-0.02,3.0599-0.06,4.08-0.09c0.29,16.91,2.65,34.32,10.7001,49.43c3.4099,6.02,8.2999,12.4,15.59,13.57
			c5.37,0.62,10.13-2.84,13.49-6.69c4.48-5.36,7.48-11.82,9.6899-18.41c4.01-12.19,5.6201-25.07,5.6201-37.87
			C1398.17,705.26,1399.55,705.3,1400.95,705.35z"/>
		<path fill="#603814" d="M1174.0699,744.05c47.4901,85.74,52.12,193.38,13.5901,283.33c-5.87,13.9399-12.85,27.41-20.9,40.21
			c-23.0701,37.75-55.0601,70.3201-93.27,92.79c7.05,7.87,12.96,17.1801,15.14,27.65c1.3199,6.1,1.0599,13.1799-3.1901,18.14
			c-7.0499,6.9099-17.85,4.09-25.62,0.0599c-1.4299,6.12-2.0399,13.13-6.96,17.65c-3.74,3.83-9.71,4.7-14.5699,2.66
			c-5.53-1.61-9.14-6.29-13.5801-9.6001c-2.3199,6.3401-5.92,12.1101-10.78,16.8201c-2.93,0.88-5.81,2.3199-8.95,2
			c-3.98-0.15-7.53-2.45-10.25-5.2c-9.33-10.51-11.2-25.1801-10.93-38.7001c-12.45,1.2001-24.93,1.87-37.44,1.51
			c0.34,8.75-0.5,17.58-3.55,25.84c-2.03,5.79-5.3,11.4601-10.38,15.0801c-4.32,3.22-10.67,3.48-15.15,0.46
			c-6.0601-3.8101-9.3-10.55-11.73-17.02c-4.04,3.91-8.13,8.12-13.6,9.9401c-4.73,1.84-10.56,1.1899-14.26-2.4501
			c-4.95-4.63-6.25-11.6799-6.87-18.13c-5.17,2.6801-10.89,4.8201-16.81,4.38c-4.19-0.21-8.25-2.47-10.47-6.03
			c-1.09-1.8899-1.72-3.99-2.79-5.86c0.29-5.23,0.53-10.5399,2.28-15.5199c1.6299-5.0901,4.5-9.63,6.8-14.41
			c-7.02-3.47-13.45-8.15-20.81-10.89l1.43,0.15c-54.53-33.1901-95.46-86.4501-117.32-146.1c-5.18-13.69-9.16-27.8-12.3-42.09
			c-11.55-52.55-10.08-107.96,4.38-159.79c14.64-52.5,43.08-101.46,83.14-138.61c1.28-1.04,0.64-2.91,0.89-4.31
			c0.32-20.88,4.93-41.81,14.13-60.6c5.82-11.5,13.36-22.5699,23.96-30.16c5.68-3.98,13.08-7.03,19.98-4.49
			c7.65,2.92,12.35,10.28,15.22,17.58c3.81,9.93,5.5699,20.53,6.49,31.09c27.04-10.37,55.98-15.85,84.95-15.73
			c21.7,0.03,43.34,3.26,64.21,9.12c1.39-12.35,3.36-25.1,9.58-36.06c3.7-6.49,10.4-12.32,18.29-11.85
			c9.84,0.97,17.7999,7.83,24.1,14.95c17.33,20.29,25.2,47.02,27.45,73.21C1129.12,678.75,1155.01,709.61,1174.0699,744.05z
			 M1180.0601,977.04c3.7699-26.6,4.74-53.7599,0.99-80.42c-1.05-8.02-3.29-15.81-5.42-23.59c-3.6-12.4901-7.55-24.91-12.88-36.77
			c-3.0601-6.26-6.09-13.01-11.77-17.34c-2.33-1.97-5.39-1.3-7.95-0.28c1.99-4.85,4.45-9.52,5.98-14.56
			c4.98-14.61,6-30.79,1.37-45.62c-5.61-18.66-19.17-34.04-35.24-44.62c-13.59-8.57-27.88-16.55-43.72-20.03
			c-23.9301-5.61-49.6301-3.78-72.36,5.64c-16.45,6.77-31.23,17.73-41.99,31.93c-8.85-11.69-20.45-21.19-33.44-27.96
			c-30.02-15.52-66.87-16.96-98.09-4.06c-8.2599,3.39-15.83,8.15-23.56,12.55c-14.39,8.94-27.07,21.3-34.41,36.7401
			c-6.62,13.59-8.34,29.34-5.42,44.13c1.53,9.06,5.35,17.45,8.84,25.87c-2.38-1.03-5.19-1.69-7.42,0.03
			c-5.6,3.9-8.62,10.34-11.57,16.28c-5.94,12.85-10.18,26.41-14.01,40.0099c-7.6,25.22-8.13,51.96-6.47,78.0601
			c1.7,23.64,5.82,47.11,12.34,69.9c5.37,18.54,12.25,36.73,21.63,53.64c17.96,32.5,44.16,60.4601,75.62,80.2301
			c34.07,21.5699,74.52,32.97,114.86,32.1c37.84,1.0699,75.92-8.36,108.8-27.14c31.29-17.74,57.9199-43.4401,77.15-73.8
			C1163.0699,1054.59,1174.26,1015.85,1180.0601,977.04z"/>
		<path fill="#FDE3EE" d="M1181.05,896.62c3.75,26.66,2.7799,53.82-0.99,80.42c-5.8,38.81-16.9901,77.55-38.14,110.92
			c-19.2301,30.36-45.86,56.0601-77.15,73.8c-32.88,18.78-70.96,28.21-108.8,27.14c-40.34,0.87-80.79-10.53-114.86-32.1
			c-31.46-19.77-57.66-47.7301-75.62-80.2301c-9.38-16.9099-16.26-35.1-21.63-53.64c-6.52-22.79-10.64-46.26-12.34-69.9
			c-1.66-26.1-1.13-52.84,6.47-78.0601c3.83-13.6,8.07-27.16,14.01-40.0099c2.95-5.94,5.97-12.38,11.57-16.28
			c2.23-1.72,5.04-1.06,7.42-0.03c-3.49-8.42-7.31-16.81-8.84-25.87c-2.92-14.79-1.2-30.54,5.42-44.13
			c7.34-15.44,20.02-27.8,34.41-36.7401c7.73-4.4,15.3-9.16,23.56-12.55c31.22-12.9,68.07-11.46,98.09,4.06
			c12.99,6.77,24.59,16.27,33.44,27.96c10.76-14.2,25.54-25.16,41.99-31.93c22.73-9.42,48.43-11.25,72.36-5.64
			c15.84,3.48,30.13,11.46,43.72,20.03c16.0699,10.58,29.63,25.96,35.24,44.62c4.63,14.83,3.61,31.0099-1.37,45.62
			c-1.53,5.04-3.99,9.71-5.98,14.56c2.5599-1.02,5.62-1.69,7.95,0.28c5.6801,4.33,8.71,11.08,11.77,17.34
			c5.33,11.86,9.28,24.28,12.88,36.77C1177.76,880.81,1180,888.6,1181.05,896.62z M1138.39,943.63
			c0.9399-6.48,1.96-13.04,1.64-19.58c-0.0701-1.97-2.67-0.99-3.86-1.23c-0.0801,12.25-2,24.58-6.4601,36.02
			c-2.1899,4.75-4.8999,9.45-8.84,12.98c-3.09,2.79-7.88,3.98-11.6801,1.95c-6.1399-3.16-9.49-9.66-12.23-15.68
			c-4.13-11.21-6.0499-23.2-6.1699-35.13c-0.7001-0.05-2.11-0.16-2.8201-0.22c-1.5699,0.89-1.14,2.75-1.14,4.25
			c0.66,13.84,3.1001,28,9.9701,40.2c3.7699,5.49,8.9199,11.79,16.23,11.71c5,0.31,9.64-2.4,12.85-6.07
			C1133.01,964.69,1136.28,954.03,1138.39,943.63z M1097.04,836.99c15.2999-12.04,24.5499-31.54,23.84-51.04
			c0.03-17.17-7.47-34.2-20.15-45.77c-14.02-13.33-34.34-19.58-53.46-16.75c-24.57,3.44-46.12,22.54-52.34,46.58
			c-5.94,21.32-0.04,45.73,15.74,61.4c8.95,9.31,20.65,16.1801,33.44,18.42C1062.48,853.59,1082.52,848.94,1097.04,836.99z
			 M1098.0699,1024.03c1.67-8.15,2.9701-16.47,2.52-24.8101c-1.24,0.27-2.9199-0.41-3.7899,0.72c-0.3501,1.63-0.4,3.31-0.4501,4.99
			c-0.2999,12.08-2.76,24.28-8.39,35.06c-1.83,3.3201-4.2899,6.3101-7.1599,8.8c-3.6801,3.36-9.88,3.26-13.5801-0.01
			c-4.86-4.15-7.7999-10.01-10.1699-15.8101c-3.91-10.73-5.5701-22.18-5.5601-33.5699c-1.36-0.04-2.71-0.08-4.04-0.1
			c0.14,15.2,2.3401,30.89,9.9801,44.27c3.4299,5.6101,8.58,11.2301,15.5599,11.76c6.4401,0.63,11.97-3.88,15.65-8.71
			C1093.36,1039.88,1096.29,1032.02,1098.0699,1024.03z M1060.65,949.88c1.99-8.83,3.3199-17.88,3.16-26.95
			c-1.29-0.03-2.5601-0.04-3.8101-0.05c-0.79,11.77-1.71,23.8-6.26,34.83c-2.5,5.44-4.98,11.35-10.11,14.86
			c-3.3199,2.71-8.3101,3.04-11.9,0.71c-5.66-3.4901-8.8-9.6801-11.27-15.6201c-4.16-11.06-5.97-22.93-5.83-34.72
			c-1.44-0.09-2.86-0.08-4.27,0.05c0.4,15.2,2.49,30.98,10.33,44.3c2.66,4.79,6.71,8.91,11.8,11.08c5.53,1.67,11.63-0.21,15.73-4.17
			C1054.86,967.67,1058.24,958.69,1060.65,949.88z M1059.41,1104.35c3.0299-10.09,4.5399-20.6699,4.37-31.21
			c-1.26-0.01-2.51-0.01-3.75,0.01c-0.99,14.5699-2.3301,29.89-10.1901,42.62c-3.1,5.74-10.14,11.75-16.9299,8.39
			c-5.5701-2.73-8.79-8.39-11.3-13.79c-5.35-11.59-6.93-24.53-7.02-37.1801c-1.4-0.0299-2.79-0.0499-4.17-0.0499
			c0.03,14.0699,2.18,28.39,8.35,41.16c2.86,5.4099,6.54,10.88,12.24,13.6c4.85,2.36,10.9,1.5499,15.14-1.73
			C1053.22,1120.92,1056.63,1112.4,1059.41,1104.35z M1022.02,1022.95c1.48-7.83,2.66-15.85,1.96-23.82
			c-1.23,0.06-2.46,0.13-3.67,0.22c-0.01,11.13-1.57,22.35-5.18,32.89c-2.91,6.75-5.99,14.51-13.02,17.9301
			c-3.95,2.25-9.02,0.85-12.12-2.2001c-6.5-6.01-9.51-14.7-11.82-23.01c-2.38-8.3699-2.66-17.1-3.33-25.71
			c-1.23-0.04-2.46-0.06-3.66-0.07c-0.07,14.58,2.13,29.57,8.98,42.61c3.03,5.6499,7.52,11.22,13.92,13.0699
			c5.93,1.74,12.23-1.25,16.13-5.71C1016.56,1041.75,1019.95,1032.35,1022.02,1022.95z M987.3,925.02c0.8-2.61-3.74-3.26-3.78-0.76
			c-0.91,15.65-2.89,32.57-12.96,45.25c-2.68,3.87-7.67,6.13-12.31,5.09c-5.17-1.63-8.55-6.21-11.15-10.7
			c-4.9-8.12-6.43-17.66-8.06-26.85c-0.98-4.84,0.08-9.98-1.72-14.65c-0.78,0.19-2.34,0.56-3.12,0.75
			c-0.14,10.8,1.34,21.67,4.62,31.98c2.43,7.45,6.07,14.83,12.02,20.11c4.58,4.21,11.96,4.82,17.34,1.83
			c6.19-3.89,9.92-10.55,12.78-17.07C985.29,948.89,987.28,936.9,987.3,925.02z M987.52,1073.38c-1.35-0.05-2.68-0.08-4-0.1
			c-0.6,12.5499-1.87,25.4199-7.06,37.02c-2.36,4.75-4.95,9.7799-9.48,12.8099c-2.84,1.67-6.48,2.96-9.67,1.52
			c-5.21-2.15-8.36-7.15-11.05-11.83c-6.09-12.3201-7.66-26.2201-8.32-39.77c-1.23-0.04-2.45-0.0601-3.65-0.0701
			c-0.4,8.2001,0.77,16.38,2.35,24.42c2.01,8.16,4.6,16.4399,9.69,23.27c3.15,4.0599,7.33,7.87,12.65,8.51
			c6.67,0.84,12.78-3.5,16.42-8.75C984.85,1106.73,987.05,1089.6,987.52,1073.38z M989.53,839.29
			c-17.8101-0.23-35.6201-0.02-53.42-0.11c9.84,20.89,19.62,41.82,29.41,62.73c1.34-0.09,1.11-1.98,1.75-2.8199
			C974.64,879.14,981.9,859.14,989.53,839.29z M942.31,1034.34c3.92-11.22,6.04-23.16,5.49-35.0699c-1.21-0.04-2.41-0.07-3.59-0.09
			c-0.72,13.23-1.97,26.8801-8.02,38.9c-2.55,5.0801-5.91,10.4-11.43,12.5701c-3.98,1.73-8.44-0.3-11.53-2.87
			c-3.48-3.37-5.86-7.7101-7.89-12.05c-4.7-11.54-6.31-24.07-6.82-36.44c-1.29,0.06-2.57,0.15-3.84,0.2401
			c0.23,12.86,1.99,25.86,6.93,37.8199c2.59,5.64,5.73,11.4,10.91,15.0701c4.96,3.51,12.26,4.11,17.24,0.33
			C935.91,1048.28,939.68,1041.3101,942.31,1034.34z M920.58,822.45c11.8-17.25,14.08-40.55,5.96-59.79
			c-5.67-14.44-17.16-26.23-30.88-33.27c-11.56-5.42-24.65-7.88-37.35-5.97c-28.2,3.4-52.35,27.85-54.86,56.24
			c-1.88,16.27,2.68,33.2401,12.6,46.29c10.63,13.59,26.68,23.18,43.99,24.75C883.43,853.72,907.81,842.23,920.58,822.45z
			 M905.44,1100.36c2.16-8.88,3.1-18.04,3.24-27.16c-1.44-0.0299-2.85-0.0399-4.26-0.0399c0.07,12.6699-1.77,25.5599-6.93,37.21
			c-2.12,4.59-4.76,9.15-8.8,12.3199c-3.17,2.54-7.96,3.52-11.52,1.2101c-6.82-3.8101-9.93-11.39-12.73-18.26
			c-3.11-9.16-4.63-18.86-4.89-28.52c-0.2-1.28,0.06-2.8-0.85-3.8199c-1.12-0.17-3.21-0.8-3.2,1.0299
			c-0.43,5.1801,0.47,10.36,0.96,15.52c1.64,10.53,4.3,21.25,10.5099,30.09c2.71,3.6801,6.11,7.1901,10.6,8.5901
			c5.69,2.03,12.24-0.36,16.15-4.76C899.93,1117.36,903.04,1108.77,905.44,1100.36z M908.7,923.07c-1.43-0.52-2.91-0.54-4.33-0.05
			c0.29,12.51-1.81,25.16-6.68,36.71c-2.12,5.1-5.36,9.81-9.65,13.31c-3.54,2.29-8.57,2.48-12.04-0.03
			c-5.63-3.73-8.45-10.16-10.97-16.15c-4.36-10.82-5.16-22.56-5.98-34.06c-1.18,0.27-3.77-0.78-3.65,1.27
			c-0.14,12.54,2.0699,25.19,6.67,36.88c3.26,7.36,8.15,15.08,16.27,17.59c7.03,1.76,14.21-2.36,18.06-8.14
			C905.92,956.64,908.32,939.43,908.7,923.07z M863.7,1033.9c3.74-11.12,5.84-22.96,5.3-34.71c-1.24,0.02-2.47,0.05-3.69,0.1
			c-0.56,13.76-2.16,27.95-8.62,40.34c-2.69,4.72-6.27,9.63-11.74,11.24c-4.07,1.25-8.27-0.9301-11.17-3.67
			c-5.33-5.7899-8.3701-13.2799-10.33-20.7999c-2.58-8.84-3.25-18.05-3.63-27.19c-1.25-0.03-2.5-0.04-3.73-0.04
			c-0.48,13.43,1.94,27.04,7.22,39.41c3.08,6.16,6.95,12.77,13.61,15.55c4.66,2.2,10.43,1.36,14.52-1.7
			C857.64,1047.99,860.94,1040.78,863.7,1033.9z M825.81,959.69c4.63-11.68,6.72-24.38,6.2-36.92c-1.27,0.07-2.52,0.15-3.76,0.25
			c-0.39,5.9-0.38,11.86-1.59,17.69c-1.83,10.83-4.86,22.21-12.67,30.36c-3.39,3.64-9.14,5-13.56,2.46
			c-4.49-2.85-7.7-7.34-9.86-12.13c-5.74-11.98-7.12-25.42-7.78-38.52c-1.27,0-2.53,0.02-3.78,0.05
			c-0.22,12.21,1.59,24.61,6.02,36.03c3.15,7.7,7.68,15.69,15.62,19.24c4.24,1.22,9.2599,1.11,12.93-1.62
			C819.43,972.54,823.16,966.15,825.81,959.69z"/>
		<path fill="#FAC2D1" d="M1140.03,924.05c0.3199,6.54-0.7001,13.1-1.64,19.58c-2.11,10.4-5.38,21.06-12.51,29.2
			c-3.21,3.67-7.85,6.38-12.85,6.07c-7.3101,0.08-12.4601-6.22-16.23-11.71c-6.87-12.2-9.3101-26.36-9.9701-40.2
			c0-1.5-0.4299-3.36,1.14-4.25c0.7101,0.06,2.12,0.17,2.8201,0.22c0.12,11.93,2.0399,23.92,6.1699,35.13
			c2.74,6.02,6.0901,12.52,12.23,15.68c3.8,2.03,8.5901,0.84,11.6801-1.95c3.9401-3.53,6.65-8.23,8.84-12.98
			c4.4601-11.44,6.38-23.77,6.4601-36.02C1137.36,923.06,1139.96,922.08,1140.03,924.05z"/>
		<path fill="#F9C3D1" d="M1120.88,785.95c0.71,19.5-8.54,39-23.84,51.04c-14.52,11.95-34.5601,16.6-52.9301,12.84
			c-12.79-2.24-24.49-9.11-33.44-18.42c-15.78-15.67-21.68-40.08-15.74-61.4c6.22-24.04,27.77-43.14,52.34-46.58
			c19.12-2.83,39.4399,3.42,53.46,16.75C1113.41,751.75,1120.91,768.78,1120.88,785.95z M1083.16,815.08
			c12.5399-11.28,15.8199-31.11,7.86-45.93c-7.96-15.81-27.54-24.4-44.55-19.3c-12.6,3.4301-23.0099,13.69-26.6,26.25
			c-3.55,11.87-0.92,25.4,6.9401,35.01c6.37,8,16.0599,13.26,26.2699,14.2C1063.96,826.43,1075.25,822.66,1083.16,815.08z"/>
		<path fill="#FAC2D1" d="M1100.59,999.22c0.4501,8.34-0.85,16.66-2.52,24.8101c-1.7799,7.99-4.71,15.85-9.4299,22.59
			c-3.6801,4.83-9.21,9.34-15.65,8.71c-6.98-0.5299-12.13-6.1499-15.5599-11.76c-7.64-13.38-9.8401-29.0699-9.9801-44.27
			c1.3301,0.02,2.6801,0.06,4.04,0.1c-0.01,11.39,1.65,22.84,5.5601,33.5699c2.37,5.8,5.3099,11.66,10.1699,15.8101
			c3.7001,3.27,9.9,3.37,13.5801,0.01c2.87-2.49,5.33-5.48,7.1599-8.8c5.63-10.78,8.0901-22.98,8.39-35.06
			c0.05-1.68,0.1-3.36,0.4501-4.99C1097.67,998.81,1099.35,999.49,1100.59,999.22z"/>
		<path d="M1091.02,769.15c7.96,14.8199,4.6799,34.65-7.86,45.93c-7.91,7.58-19.2001,11.35-30.0801,10.23
			c-10.21-0.94-19.8999-6.2-26.2699-14.2c-7.86-9.61-10.4901-23.14-6.9401-35.01c3.59-12.56,14-22.8199,26.6-26.25
			C1063.48,744.75,1083.0601,753.34,1091.02,769.15z M1073.08,786.7c8.4501-0.57,14.99-9.62,12.77-17.83
			c-1.6799-8.39-11.59-13.65-19.49-10.29c-5.8099,2.11-9.78,8.27-9.25,14.44C1057.2,781.05,1065.15,787.74,1073.08,786.7z"/>
		<path fill="#FFFFFF" d="M1085.85,768.87c2.22,8.21-4.3199,17.26-12.77,17.83c-7.9299,1.04-15.88-5.65-15.97-13.68
			c-0.53-6.17,3.4401-12.33,9.25-14.44C1074.26,755.22,1084.17,760.48,1085.85,768.87z"/>
		<path fill="#FAC2D0" d="M1063.8101,922.93c0.1599,9.07-1.17,18.12-3.16,26.95c-2.41,8.81-5.79,17.79-12.4301,24.32
			c-4.1,3.96-10.2,5.84-15.73,4.17c-5.09-2.17-9.14-6.29-11.8-11.08c-7.84-13.32-9.93-29.1-10.33-44.3
			c1.41-0.13,2.83-0.14,4.27-0.05c-0.14,11.79,1.67,23.66,5.83,34.72c2.47,5.94,5.6099,12.13,11.27,15.6201
			c3.59,2.33,8.5801,2,11.9-0.71c5.13-3.51,7.61-9.42,10.11-14.86c4.55-11.03,5.47-23.06,6.26-34.83
			C1061.25,922.89,1062.52,922.9,1063.8101,922.93z"/>
		<path fill="#FAC2D1" d="M1063.78,1073.14c0.1699,10.54-1.3401,21.12-4.37,31.21c-2.78,8.05-6.1901,16.5701-13.26,21.8201
			c-4.24,3.2799-10.29,4.09-15.14,1.73c-5.7-2.72-9.38-8.1901-12.24-13.6c-6.17-12.77-8.32-27.0901-8.35-41.16
			c1.38,0,2.77,0.02,4.17,0.0499c0.09,12.65,1.67,25.5901,7.02,37.1801c2.51,5.4,5.73,11.0601,11.3,13.79
			c6.7899,3.36,13.83-2.65,16.9299-8.39c7.86-12.73,9.2001-28.05,10.1901-42.62C1061.27,1073.13,1062.52,1073.13,1063.78,1073.14z"
			/>
		<path fill="#FAC1D1" d="M1023.98,999.13c0.7001,7.97-0.48,15.99-1.96,23.82c-2.07,9.4-5.46,18.8-11.81,26.2
			c-3.9,4.46-10.2,7.45-16.13,5.71c-6.4-1.85-10.89-7.42-13.92-13.0699c-6.85-13.04-9.05-28.03-8.98-42.61
			c1.2,0.01,2.43,0.03,3.66,0.07c0.67,8.61,0.95,17.34,3.33,25.71c2.31,8.3101,5.32,17,11.82,23.01
			c3.1,3.05,8.17,4.4501,12.12,2.2001c7.03-3.42,10.11-11.1801,13.02-17.9301c3.61-10.54,5.17-21.76,5.18-32.89
			C1021.52,999.26,1022.75,999.19,1023.98,999.13z"/>
		<path fill="#FAC2D0" d="M983.52,924.26c0.04-2.5,4.58-1.85,3.78,0.76c-0.02,11.88-2.01,23.87-6.34,34.98
			c-2.86,6.52-6.59,13.18-12.78,17.07c-5.38,2.99-12.76,2.38-17.34-1.83c-5.95-5.28-9.59-12.66-12.02-20.11
			c-3.28-10.31-4.76-21.18-4.62-31.98c0.78-0.19,2.34-0.56,3.12-0.75c1.8,4.67,0.74,9.81,1.72,14.65
			c1.63,9.19,3.16,18.73,8.06,26.85c2.6,4.49,5.98,9.0699,11.15,10.7c4.64,1.04,9.63-1.22,12.31-5.09
			C980.63,956.83,982.61,939.91,983.52,924.26z"/>
		<path fill="#FAC2D0" d="M983.52,1073.28c1.32,0.02,2.65,0.0499,4,0.1c-0.47,16.22-2.67,33.35-12.12,47.03
			c-3.64,5.25-9.75,9.59-16.42,8.75c-5.32-0.64-9.5-4.4501-12.65-8.51c-5.09-6.8301-7.68-15.11-9.69-23.27
			c-1.58-8.04-2.75-16.22-2.35-24.42c1.2,0.01,2.42,0.03,3.65,0.0701c0.66,13.5499,2.23,27.45,8.32,39.77
			c2.69,4.6799,5.84,9.6799,11.05,11.83c3.19,1.4399,6.83,0.15,9.67-1.52c4.53-3.03,7.12-8.0599,9.48-12.8099
			C981.65,1098.7,982.92,1085.83,983.52,1073.28z"/>
		<path fill="#41210A" d="M983.8,1191.86c-0.27,13.52,1.6,28.1901,10.93,38.7001c-17.42-3.2201-34.56-7.79-51.92-11.3501
			c3.05-8.26,3.89-17.09,3.55-25.84C958.87,1193.73,971.35,1193.0601,983.8,1191.86z"/>
		<path fill="#603814" d="M936.11,839.18c17.8,0.09,35.61-0.12,53.42,0.11c-7.63,19.85-14.89,39.85-22.26,59.8
			c-0.64,0.84-0.41,2.73-1.75,2.8199C955.73,881,945.95,860.07,936.11,839.18z"/>
		<path fill="#FAC1D0" d="M947.8,999.27c0.55,11.91-1.57,23.85-5.49,35.0699c-2.63,6.9701-6.4,13.9401-12.55,18.41
			c-4.98,3.78-12.28,3.1801-17.24-0.33c-5.18-3.67-8.32-9.4301-10.91-15.0701c-4.94-11.96-6.7-24.96-6.93-37.8199
			c1.27-0.09,2.55-0.1801,3.84-0.2401c0.51,12.37,2.12,24.9,6.82,36.44c2.03,4.34,4.41,8.6801,7.89,12.05
			c3.09,2.5699,7.55,4.6,11.53,2.87c5.52-2.17,8.88-7.49,11.43-12.5701c6.05-12.0199,7.3-25.67,8.02-38.9
			C945.39,999.2,946.59,999.23,947.8,999.27z"/>
		<path fill="#F9C3D1" d="M926.54,762.66c8.12,19.2401,5.84,42.54-5.96,59.79c-12.77,19.78-37.15,31.27-60.54,28.25
			c-17.31-1.57-33.36-11.16-43.99-24.75c-9.92-13.05-14.48-30.02-12.6-46.29c2.51-28.39,26.66-52.84,54.86-56.24
			c12.7-1.91,25.79,0.55,37.35,5.97C909.38,736.43,920.87,748.22,926.54,762.66z M903.11,800.88c4.04-10.31,3.3-22.37-1.96-32.12
			c-7.94-15.38-26.98-23.75-43.6801-19.08c-11.89,2.96-21.98,12.08-26.29,23.53c-3.79,9.71-3.28,20.95,1.2,30.35
			c4.08,8.45,11.27,15.43,19.99,18.99c9.51,3.99,20.66,3.94,30.11-0.23C891.85,818.31,899.48,810.41,903.11,800.88z"/>
		<path fill="#FAC2D1" d="M908.68,1073.2c-0.14,9.12-1.08,18.28-3.24,27.16c-2.4,8.41-5.51,17-11.72,23.41
			c-3.91,4.4-10.46,6.79-16.15,4.76c-4.49-1.4-7.89-4.91-10.6-8.5901c-6.21-8.84-8.87-19.5599-10.5099-30.09
			c-0.4901-5.16-1.39-10.34-0.96-15.52c-0.01-1.83,2.08-1.2,3.2-1.0299c0.91,1.0199,0.65,2.5399,0.85,3.8199
			c0.26,9.66,1.78,19.36,4.89,28.52c2.8,6.87,5.91,14.45,12.73,18.26c3.56,2.3099,8.35,1.33,11.52-1.2101
			c4.04-3.1699,6.68-7.73,8.8-12.3199c5.16-11.65,7-24.54,6.93-37.21C905.83,1073.16,907.24,1073.17,908.68,1073.2z"/>
		<path fill="#FAC2D1" d="M904.37,923.02c1.42-0.49,2.9-0.47,4.33,0.05c-0.38,16.36-2.78,33.57-12.3,47.33
			c-3.85,5.78-11.03,9.9-18.06,8.14c-8.1201-2.5099-13.01-10.23-16.27-17.59c-4.6-11.69-6.81-24.34-6.67-36.88
			c-0.12-2.05,2.47-1,3.65-1.27c0.82,11.5,1.62,23.24,5.98,34.06c2.52,5.99,5.34,12.42,10.97,16.15c3.47,2.51,8.5,2.32,12.04,0.03
			c4.29-3.5,7.53-8.21,9.65-13.31C902.56,948.18,904.66,935.53,904.37,923.02z"/>
		<path d="M901.15,768.76c5.2599,9.75,6,21.81,1.96,32.12c-3.63,9.53-11.26,17.43-20.63,21.44c-9.45,4.17-20.6,4.22-30.11,0.23
			c-8.72-3.56-15.91-10.54-19.99-18.99c-4.48-9.4-4.99-20.64-1.2-30.35c4.31-11.45,14.4-20.57,26.29-23.53
			C874.17,745.01,893.21,753.38,901.15,768.76z M884.15,786.62c8.52-1,14.52-10.53,11.79-18.66c-2.19-7.97-11.83-12.66-19.42-9.32
			c-6.35,2.44-10.34,9.64-8.91,16.32C868.85,782.46,876.66,787.95,884.15,786.62z"/>
		<path fill="#FFFFFF" d="M895.94,767.96c2.73,8.13-3.27,17.66-11.79,18.66c-7.4901,1.33-15.3-4.16-16.54-11.66
			c-1.43-6.68,2.56-13.88,8.91-16.32C884.11,755.3,893.75,759.99,895.94,767.96z"/>
		<path fill="#FAC2D1" d="M869,999.19c0.54,11.75-1.56,23.59-5.3,34.71c-2.76,6.88-6.06,14.09-12.26,18.53
			c-4.09,3.0599-9.86,3.8999-14.52,1.7c-6.66-2.78-10.53-9.39-13.61-15.55c-5.28-12.37-7.7-25.98-7.22-39.41
			c1.23,0,2.48,0.01,3.73,0.04c0.38,9.14,1.05,18.35,3.63,27.19c1.96,7.52,5,15.01,10.33,20.7999c2.9,2.74,7.1,4.92,11.17,3.67
			c5.47-1.61,9.05-6.52,11.74-11.24c6.46-12.39,8.06-26.58,8.62-40.34C866.53,999.24,867.76,999.21,869,999.19z"/>
		<path fill="#41210A" d="M849.83,1169.65c-2.3,4.78-5.17,9.3199-6.8,14.41c-1.75,4.98-1.9901,10.2899-2.28,15.5199
			c-47.18-6.74-94.45-13.0399-141.93-17.2999c-103.85-9.77-208.37-12.25-312.58-7.5801c3.62-2.0699,7.51-4.0199,10.19-7.3099
			c3-3.66,4.82-8.0601,6.75-12.3201c5,4.8401,10.53,10.15,17.84,10.76c6.05,0.74,11.27-3.75,13.89-8.8199
			c1.94-3.5,1.87-7.62,2.91-11.39c1.46-1.11,3.22,0.49,4.75,0.8101c6.06,2.83,13.78,3.6699,19.49-0.4
			c3.79-2.61,4.93-7.4,5.55-11.6901c120.87-1.52,241.81,6.9501,361.41,24.42C836.38,1161.5,842.81,1166.1801,849.83,1169.65z"/>
		<path fill="#FAC2D1" d="M832.01,922.77c0.52,12.54-1.57,25.24-6.2,36.92c-2.65,6.46-6.38,12.85-12.23,16.89
			c-3.67,2.73-8.69,2.84-12.93,1.62c-7.94-3.55-12.47-11.54-15.62-19.24c-4.4301-11.42-6.2401-23.82-6.02-36.03
			c1.25-0.03,2.51-0.05,3.78-0.05c0.66,13.1,2.04,26.54,7.78,38.52c2.16,4.79,5.37,9.28,9.86,12.13c4.42,2.54,10.17,1.18,13.56-2.46
			c7.81-8.15,10.84-19.53,12.67-30.36c1.21-5.83,1.2-11.79,1.59-17.69C829.49,922.92,830.74,922.84,832.01,922.77z"/>
		<path fill="#41210A" d="M700.83,970.72c3.14,14.29,7.12,28.4,12.3,42.09c-67.2-4.88-134.55-7.82-201.92-8.12
			c7.34-12.95,13.32-26.62,18.41-40.6C586.75,964.46,643.84,966.85,700.83,970.72z"/>
		<path fill="#603814" d="M508.5,693.48c46.12,81.35,53.26,183.01,21.12,270.61c-5.09,13.98-11.07,27.65-18.41,40.6
			c-17.25,32.6-41.09,61.71-69.52,85.2c9.19,6.6799,16.83,15.5699,21.67,25.88c2.68,5.7999,4.47,12.13,4.25,18.5699
			c-0.62,4.29-1.76,9.0801-5.55,11.6901c-5.71,4.0699-13.43,3.23-19.49,0.4c-1.53-0.3201-3.29-1.92-4.75-0.8101
			c-1.04,3.77-0.97,7.89-2.91,11.39c-2.62,5.0699-7.84,9.5599-13.89,8.8199c-7.31-0.61-12.84-5.9199-17.84-10.76
			c-1.93,4.26-3.75,8.66-6.75,12.3201c-2.68,3.29-6.57,5.24-10.19,7.3099c-1.5,0.3101-3.05,0.3-4.58,0.41
			c-3.82-2.75-8.27-4.95-10.9-9.02c-2.44-3.7-4.37-7.74-5.86-11.9099c-1.71-4.8501-1.75-10.0601-2.92-15.04
			c-0.54-0.26-1.62-0.77-2.16-1.03c0.61-0.0599,1.83-0.1799,2.44-0.24c-0.01-0.97-0.04-2.92-0.06-3.9
			c-5.78,1.78-11.62,3.4-17.51,4.8201c0.69,0.01,2.07,0.02,2.76,0.0299c-11.18,1.77-22.22,4.4301-33.51,5.4701
			c-13.86,1.51-27.84,1.36-41.75,0.71c-3.05-0.28-6.09-0.63-9.13-0.89c0.03,0.46,0.08,1.37,0.1,1.83
			c0.46,13.9301-2.16,29.3701-12.56,39.5c-4.31,3.3501-10.65,4.8-15.55,1.8601c-6.75-3.5601-9.96-10.75-12.9-17.37
			c-4.92,4.6899-10.28,9.7999-17.34,10.72c-4.94,0.7999-9.69-2.05-12.52-5.9301c-3.33-4.35-3.76-10-5.03-15.14
			c-5.79,2.26-11.93,4.8301-18.27,3.61c-3.12-0.4099-5.71-2.37-7.87-4.5199c-3.69-4.7101-3.97-11.15-2.84-16.8
			c1.97-10.28,7.52-19.5599,14.39-27.33c-34.91-19.76-64.83-47.91-87.68-80.79c-8.35-11.98-16.03-24.47-22.41-37.6
			C25.52,922.2,19.22,833.92,43.42,755.01c14.87-48.38,41.56-93.37,78.32-128.31c1.24-1.42,3.52-2.47,3.35-4.66
			c0.1-20.62,4.25-41.35,12.95-60.09c5.83-12.26,13.55-24.09,24.58-32.29c5.68-4.05,13.01-7.4,20.04-5.06
			c7.48,2.57,12.35,9.51,15.27,16.53c4.16,10.27,5.96,21.33,7.03,32.31c44.95-17.43,95.31-20.53,142-8.45
			c2.37,0.61,4.74,1.23,7.13,1.8c1.15-10.96,2.97-22.07,7.54-32.18c3.01-6.7,8.09-13.14,15.43-15.21c7.33-1.85,14.65,1.9,20.36,6.22
			c9.18,7.31,16.1,17.1,21.44,27.46c8.61,16.74,13.05,35.34,14.65,54.02C464.25,630.16,489.58,660.1,508.5,693.48z M513.08,946.12
			c6.46-34.19,8.76-69.6,2.76-104.02c-4.2-18.12-9.48-36.08-16.89-53.16c-3.1-6.45-6.16-13.4-11.92-17.92
			c-2.34-2.01-5.48-1.47-8.09-0.39c4.19-9.2,8.05-18.7,9.44-28.79c2.37-14.67-0.02-30.1-6.96-43.27
			c-8.16-15.75-21.75-28.17-37.08-36.82c-4.76-2.56-9.3-5.52-14.19-7.83c-14.67-7.15-30.94-10.79-47.22-11.25
			c-33.96-0.97-69.27,13.11-89.92,40.74c-8.3-10.86-18.88-19.9-30.82-26.53c-34.16-18.94-78.12-19.07-112.23,0.07
			c-5.85,3.48-11.97,6.53-17.49,10.55c-9.1,6.4-17.27,14.26-23.49,23.52c-9.75,14.19-14.11,32.01-11.67,49.08
			c1.2,10.71,5.25,20.78,9.62,30.53c-2.16-0.64-4.6-1.75-6.72-0.33c-5.33,3.01-8.2,8.77-11,13.97
			c-7.61,15.46-12.47,32.09-16.95,48.69c-3.76,13.34-4.84,27.25-5.49,41.04c-0.8,23.98,1.5,48,5.96,71.56
			c5.9,29.73,15.02,59.16,30.1,85.59c25.55,44.99,67.27,80.9,116.23,98.02c24.3,8.6599,50.2,12.3099,75.95,11.9399
			c40.46,0.25,81.02-11.04,115.07-33.01c32.61-20.7899,59.46-50.4,77.26-84.71C499.79,999.13,507.79,972.8,513.08,946.12z"/>
		<path fill="#C8EAF4" d="M515.84,842.1c6,34.42,3.7,69.83-2.76,104.02c-5.29,26.68-13.29,53.01-25.74,77.27
			c-17.8,34.3099-44.65,63.92-77.26,84.71c-34.05,21.97-74.61,33.26-115.07,33.01c-25.75,0.37-51.65-3.28-75.95-11.9399
			c-48.96-17.12-90.68-53.03-116.23-98.02c-15.08-26.4301-24.2-55.86-30.1-85.59C68.27,922,65.97,897.98,66.77,874
			c0.65-13.79,1.73-27.7,5.49-41.04c4.48-16.6,9.34-33.23,16.95-48.69c2.8-5.2,5.67-10.96,11-13.97c2.12-1.42,4.56-0.31,6.72,0.33
			c-4.37-9.75-8.42-19.82-9.62-30.53c-2.44-17.0699,1.92-34.89,11.67-49.08c6.22-9.26,14.39-17.12,23.49-23.52
			c5.52-4.02,11.64-7.07,17.49-10.55c34.11-19.14,78.07-19.01,112.23-0.07c11.94,6.63,22.52,15.67,30.82,26.53
			c20.65-27.6299,55.96-41.71,89.92-40.74c16.28,0.46,32.55,4.1,47.22,11.25c4.89,2.31,9.43,5.27,14.19,7.83
			c15.33,8.65,28.92,21.07,37.08,36.82c6.94,13.17,9.33,28.6,6.96,43.27c-1.39,10.09-5.25,19.59-9.44,28.79
			c2.61-1.08,5.75-1.62,8.09,0.39c5.76,4.52,8.82,11.47,11.92,17.92C506.36,806.02,511.64,823.98,515.84,842.1z M473.37,900.35
			c1.49-8.2599,3.36-16.72,2.32-25.14c-1.14-0.31-2.3-0.46-3.48-0.47c-0.63,14.17-2.5,28.67-9.15,41.4
			c-3.06,4.76-7.09,9.99-13.09,10.78c-5.8,0.25-10.06-4.54-13-8.94c-7.87-12.87-9.82-28.26-10.34-43.06
			c-1.53,0.12-4.17-0.41-3.8,2.01c-0.14,8.16,1.14,16.34,2.83,24.31c2.93,9.61,6.11,20.3,14.54,26.57
			c5.04,4.07,12.75,4.33,17.85,0.23C466.9,921.5,470.55,910.52,473.37,900.35z M454.95,754.94c4.56-17.79,0.98-37.36-9.34-52.51
			c-13.27-19.42-37.9-30.48-61.25-27.06c-23.97,2.59-45.29,20.58-52.55,43.48c-5.16,15.87-4.14,33.85,3.49,48.77
			c11.34,23.64,38.36,38.37,64.38,35.08C425.71,800.53,448.79,780.22,454.95,754.94z M427.26,994.38
			c7.1-13.12,9.23-28.23,9.33-42.97c-1.4-0.09-2.8-0.17-4.2-0.23c-0.1,6.85-0.14,13.78-1.68,20.51
			c-2.06,10.84-5.78,22.18-14.5,29.54c-4.04,3.54-10.51,2.21-14.07-1.38c-5.68-4.97-8.23-12.28-10.8-19.14
			c-3.23-9.59-3.15-19.77-4.58-29.66c-1.36,0.29-3.76-0.08-3.5,2.03c0.49,13.66,2.28,27.76,8.74,40.02
			c2.2,4.75,5.66,8.92,10.01,11.86c4.13,2.79,9.65,2.92,14.2,1.12C421.05,1003.53,424.62,999.08,427.26,994.38z M390.24,1068.34
			c7.38-13.1,9.27-28.45,9.49-43.24c-1.41,0.09-2.81,0.1901-4.22,0.3101c0.05,10.63-1.45,21.3099-4.68,31.45
			c-2.36,5.85-4.7,12.12-9.51,16.4501c-3.18,2.84-7.79,5.0499-12.01,3.1899c-4.33-2.1-7.69-5.87-9.79-10.15
			c-4.24-8.3099-7.15-17.34-8.19-26.62c-0.7-4.8199-0.49-9.72-1.41-14.5c-1.22-0.02-2.44-0.02-3.65-0.01
			c0.13,11.27,1.64,22.62,5.14,33.37c2.38,6.64,5.34,13.4301,10.82,18.13c3.73,3.8201,9.47,5.62,14.65,4.03
			C383.14,1079.17,387.04,1073.51,390.24,1068.34z M389.09,920.16c8.17-13.5,10.31-29.64,10.68-45.14c-1.44,0.08-2.87,0.16-4.3,0.26
			c0.05,13.39-2.02,27.06-8.03,39.15c-2.13,4.55-5.18,8.95-9.73,11.36c-3.99,2.17-9.27,1.17-12.41-2.04
			c-6.45-6.5-9.8-15.31-11.99-24.03c-2.17-7.95-2.63-16.21-2.77-24.4c-1.44-0.15-2.87-0.26-4.3-0.33
			c0.43,15.04,2.42,30.57,9.86,43.91c3.64,5.96,9.23,12.55,16.93,12.02C380.06,931.08,385.65,925.78,389.09,920.16z M357.66,975.68
			c1.92-8.05,2.86-16.36,2.24-24.63c-1.22,0.03-2.44,0.07-3.65,0.12c-0.43,15.42-2.39,31.76-11.22,44.85
			c-3.34,4.31-8.97,8.89-14.73,6.64c-6.8-2.68-10.57-9.53-12.97-16.04c-5.04-11.09-5.87-23.44-6.52-35.43
			c-1.21-0.01-2.41-0.01-3.6,0.01c-0.53,9.02,0.83,18,2.8,26.78c2.47,9.1,5.96,18.43,12.9,25.1c5.54,5.64,15.69,5.68,21.19-0.01
			C351.7,995.91,355.55,985.7,357.66,975.68z M325.39,791.2c-17.8-0.06-35.6,0-53.4-0.04c9.94,21.11,19.77,42.27,29.76,63.35
			C309.79,833.47,317.4,812.26,325.39,791.2z M316.61,912.61c4.68-11.95,7.02-24.88,6.37-37.7c-1.25,0.03-2.49,0.08-3.73,0.14
			c-0.22,7.67-0.67,15.39-2.29,22.92c-2.64,9.55-5.61,19.8101-13.45,26.4901c-2.97,2.7-7.6,3.23-11.13,1.34
			c-5.34-2.64-8.47-8.03-11.15-13.09c-5.2-11.78-6.75-24.72-7.45-37.45c-0.78-0.16-2.33-0.46-3.1-0.61
			c-1.2,3.0099-0.63,6.27-0.4,9.41c1.37,14.53,4.41,29.98,14.39,41.23c4.09,4.89,11.23,7.12,17.21,4.56
			C309.21,926.83,313.58,919.56,316.61,912.61z M316.72,1062.83c4.6-11.96,7.11-24.89,6.19-37.73c-1.22,0.02-2.43,0.05-3.64,0.09
			c-0.17,15.89-2.79,32.5801-12.21,45.8101c-2.45,3.6899-6.76,5.86-11.1,6.28c-5.56-0.7101-9.36-5.5-12.26-9.86
			c-7.75-12.65-8.76-27.8501-9.94-42.26c-1.2,0.01-2.4,0.0299-3.59,0.0599c-0.53,15.11,2.71,30.4401,9.55,43.9401
			c4.21,6.6899,11.51,14.09,20.21,11.73C308.68,1078.84,313.06,1070.2,316.72,1062.83z M271.7,998.63
			c9.38-13.84,12.29-30.98,12.22-47.42c-1.27-0.06-2.53-0.12-3.79-0.16c-0.68,13.03-2.19,26.34-7.67,38.34
			c-2.11,4.56-5.28,8.67-9.18,11.84c-4.18,3.29-10.59,2.23-14.16-1.46c-5.2-5.44-8.42-12.47-10.39-19.66
			c-3.2-9.2-3.81-19-4.18-28.65c-1.17-0.13-2.34-0.26-3.5-0.37c-1.05,10.46,0.86,20.95,3.83,30.96c1.91,6.47,4.85,12.71,8.94,18.1
			c3.05,4.0699,7.75,7.0699,12.91,7.31C262.78,1007.33,268.53,1003.73,271.7,998.63z M267.08,744.04
			c2.03-23.0099-9.59-46.67-29.22-58.89c-13.11-9.12-29.85-11.72-45.46-9.63c-19.54,3.29-37.01,16.27-46.22,33.76
			c-13.3,24.18-7.98,56.6899,11.98,75.64c11.3,11.12,26.9,17.98,42.82,18.16c16.54,0.63,33.23-5.46,45.32-16.79
			C258.13,775.45,265.92,760.08,267.08,744.04z M239.72,906.92c3.49-10.15,4.56-20.95,4.87-31.62c-1.41-0.15-2.83-0.27-4.24-0.36
			c0.15,13.01-1.94,26.19-7.32,38.1c-3.12,6.13-7.68,12.9-15.07,13.89c-5.7-0.54-10.4-4.85-13.11-9.68
			c-4.63-8.4-7.33-17.75-8.61-27.22c-0.63-5.03-0.61-10.1-1.32-15.11c-1.26,0.02-2.52,0.04-3.77,0.08
			c0.12,14.11,2.14,28.61,8.49,41.37c3.08,6.18,7.8,12.29,14.72,14.28c5.99,1.4,12.25-1.54,16.16-6.04
			C234.81,919.46,238.02,913.42,239.72,906.92z M235.56,1067.58c6.75-12.95,8.84-27.7699,8.96-42.22c-1.32-0.02-2.64-0.04-3.96-0.04
			c-0.4,14.05-2.18,28.6001-9.2,41.04c-2.63,4.5-5.99,9.41-11.43,10.6c-5.14,1.51-9.8-2.4099-12.74-6.1899
			c-9.65-13.09-11.2-29.89-12.31-45.59c-1.23-0.01-2.47,0-3.7,0.0199c0.11,14.3301,2.25,28.9601,8.7,41.91
			c2.15,4.55,5.53,8.4501,9.54,11.47c3.7,2.7001,8.68,3.51,13.01,1.9401C228.71,1078.72,232.26,1072.73,235.56,1067.58z
			 M202.18,977.15c1.73-8.53,3.25-17.2,2.7-25.94c-1.24,0.0099-2.47,0.04-3.71,0.07c-0.35,14.31-2.37,28.98-9.35,41.6899
			c-2.49,4.3101-5.95,8.44-10.89,9.9301c-4.55,1.39-9.02-1.56-12.03-4.72c-3.8-4.86-7.05-10.29-8.72-16.27
			c-2.94-9.99-4.36-20.3799-4.41-30.78c-1.23-0.01-2.45,0-3.67,0.01c-0.58,8.49,0.53,16.99,2.4,25.26
			c1.64,7.81,4.56,15.47,9.24,21.97c2.97,3.67,6.27,7.88,11.29,8.54c5.23,1.22,10.92-0.37,14.62-4.28
			C196.28,995.63,199.95,986.39,202.18,977.15z M156.49,921.59c8.93-13.8,11.77-30.64,11.51-46.84c-1.27,0.09-2.54,0.19-3.81,0.3
			c-0.13,11.87-1.88,23.8-6.17,34.91c-2.85,6.5-6.72,13.33-13.38,16.5c-6.13,1.93-11.62-2.59-14.76-7.42
			c-8.68-12.88-10.54-28.87-11.19-44.02c-1.2-0.03-2.4-0.05-3.6-0.07c-0.55,14.98,2.32,30.35,9.36,43.67
			c3.84,6.04,9.57,12.96,17.52,12.29C148.26,931.17,152.91,926.11,156.49,921.59z"/>
		<path fill="#AEE0E7" d="M475.69,875.21c1.04,8.42-0.83,16.88-2.32,25.14c-2.82,10.17-6.47,21.15-15.32,27.69
			c-5.1,4.1-12.81,3.84-17.85-0.23c-8.43-6.27-11.61-16.96-14.54-26.57c-1.69-7.97-2.97-16.15-2.83-24.31
			c-0.37-2.42,2.27-1.89,3.8-2.01c0.52,14.8,2.47,30.19,10.34,43.06c2.94,4.4,7.2,9.19,13,8.94c6-0.79,10.03-6.02,13.09-10.78
			c6.65-12.73,8.52-27.23,9.15-41.4C473.39,874.75,474.55,874.9,475.69,875.21z"/>
		<path fill="#AFDFE9" d="M445.61,702.43c10.32,15.15,13.9,34.72,9.34,52.51c-6.16,25.28-29.24,45.59-55.27,47.76
			c-26.02,3.29-53.04-11.44-64.38-35.08c-7.63-14.92-8.65-32.9-3.49-48.77c7.26-22.9,28.58-40.89,52.55-43.48
			C407.71,671.95,432.34,683.01,445.61,702.43z M427.5,755.59c5.08-10.4901,5.02-23.33-0.26-33.7401
			c-7.69-16.18-27.48-25.11-44.7-20.05c-10.03,2.76-18.86,9.68-23.73,18.89c-5.04,9.16-5.94,20.4-2.7,30.3
			c3.12,9.71,10.32,18,19.47,22.48c8.65,4.4,19.01,5.23,28.28,2.39C414.11,772.81,422.92,765.25,427.5,755.59z"/>
		<path fill="#ADE0E7" d="M436.59,951.41c-0.1,14.7401-2.23,29.85-9.33,42.97c-2.64,4.7-6.21,9.15-11.05,11.7
			c-4.55,1.8-10.07,1.67-14.2-1.12c-4.35-2.94-7.81-7.11-10.01-11.86c-6.46-12.2599-8.25-26.36-8.74-40.02
			c-0.26-2.11,2.14-1.74,3.5-2.03c1.43,9.89,1.35,20.07,4.58,29.66c2.57,6.86,5.12,14.17,10.8,19.14
			c3.56,3.59,10.03,4.92,14.07,1.38c8.72-7.36,12.44-18.7,14.5-29.54c1.54-6.73,1.58-13.66,1.68-20.51
			C433.79,951.24,435.19,951.32,436.59,951.41z"/>
		<path d="M427.24,721.85c5.28,10.41,5.34,23.25,0.26,33.7401c-4.58,9.66-13.39,17.22-23.64,20.27c-9.27,2.84-19.63,2.01-28.28-2.39
			c-9.15-4.48-16.35-12.77-19.47-22.48c-3.24-9.9-2.34-21.14,2.7-30.3c4.87-9.21,13.7-16.13,23.73-18.89
			C399.76,696.74,419.55,705.67,427.24,721.85z M412.67,737.86c7.67-2.69,11.71-12.3,8.16-19.64c-2.99-7.22-12.24-10.7-19.3-7.37
			c-6.6,2.83-10.29,10.94-7.94,17.76C395.83,736.38,405.17,740.95,412.67,737.86z"/>
		<path fill="#FFFFFF" d="M420.83,718.22c3.55,7.34-0.49,16.95-8.16,19.64c-7.5,3.09-16.84-1.48-19.08-9.25
			c-2.35-6.82,1.34-14.93,7.94-17.76C408.59,707.52,417.84,711,420.83,718.22z"/>
		<path fill="#ADE0E7" d="M399.73,1025.1c-0.22,14.79-2.11,30.14-9.49,43.24c-3.2,5.17-7.1,10.8301-13.36,12.41
			c-5.18,1.59-10.92-0.21-14.65-4.03c-5.48-4.7-8.44-11.49-10.82-18.13c-3.5-10.75-5.01-22.1-5.14-33.37
			c1.21-0.01,2.43-0.01,3.65,0.01c0.92,4.78,0.71,9.6801,1.41,14.5c1.04,9.28,3.95,18.3101,8.19,26.62
			c2.1,4.28,5.46,8.05,9.79,10.15c4.22,1.86,8.83-0.35,12.01-3.1899c4.81-4.3301,7.15-10.6001,9.51-16.4501
			c3.23-10.14,4.73-20.8199,4.68-31.45C396.92,1025.29,398.32,1025.1899,399.73,1025.1z"/>
		<path fill="#ADE0E7" d="M399.77,875.02c-0.37,15.5-2.51,31.64-10.68,45.14c-3.44,5.6201-9.03,10.92-16.06,10.76
			c-7.7,0.53-13.29-6.06-16.93-12.02c-7.44-13.34-9.43-28.87-9.86-43.91c1.43,0.07,2.86,0.18,4.3,0.33
			c0.14,8.19,0.6,16.45,2.77,24.4c2.19,8.72,5.54,17.53,11.99,24.03c3.14,3.21,8.42,4.21,12.41,2.04c4.55-2.41,7.6-6.81,9.73-11.36
			c6.01-12.09,8.08-25.76,8.03-39.15C396.9,875.18,398.33,875.1,399.77,875.02z"/>
		<path fill="#41210A" d="M370.76,1166.09c2.63,4.0701,7.08,6.27,10.9,9.02c-43.79,1.92-87.48,5.6801-131.06,10.33
			c10.4-10.1299,13.02-25.5699,12.56-39.5c3.01-0.2999,6.02-0.6799,9.03-0.9399c13.91,0.65,27.89,0.8,41.75-0.71
			c11.29-1.04,22.33-3.7001,33.51-5.4701c4.13-0.1699,8.25-0.46,12.37-0.71c0.54,0.26,1.62,0.77,2.16,1.03
			c1.17,4.98,1.21,10.1899,2.92,15.04C366.39,1158.35,368.32,1162.39,370.76,1166.09z"/>
		<path fill="#FEFEFF" d="M362.2,1133.97c0.02,0.98,0.05,2.9301,0.06,3.9c-0.61,0.0601-1.83,0.1801-2.44,0.24
			c-4.12,0.25-8.24,0.54-12.37,0.71c-0.69-0.0099-2.07-0.0199-2.76-0.0299C350.58,1137.37,356.42,1135.75,362.2,1133.97z"/>
		<path fill="#ADE0E7" d="M359.9,951.05c0.62,8.27-0.32,16.58-2.24,24.63c-2.11,10.02-5.96,20.23-13.56,27.39
			c-5.5,5.69-15.65,5.65-21.19,0.01c-6.94-6.67-10.43-16-12.9-25.1c-1.97-8.78-3.33-17.76-2.8-26.78c1.19-0.02,2.39-0.02,3.6-0.01
			c0.65,11.99,1.48,24.34,6.52,35.43c2.4,6.51,6.17,13.36,12.97,16.04c5.76,2.25,11.39-2.33,14.73-6.64
			c8.83-13.09,10.79-29.43,11.22-44.85C357.46,951.12,358.68,951.08,359.9,951.05z"/>
		<path fill="#603814" d="M271.99,791.16c17.8,0.04,35.6-0.02,53.4,0.04c-7.99,21.06-15.6,42.27-23.64,63.31
			C291.76,833.43,281.93,812.27,271.99,791.16z"/>
		<path fill="#AEE0E7" d="M322.98,874.91c0.65,12.82-1.69,25.75-6.37,37.7c-3.03,6.95-7.4,14.22-14.73,17.24
			c-5.98,2.56-13.12,0.33-17.21-4.56c-9.98-11.25-13.02-26.7-14.39-41.23c-0.23-3.14-0.8-6.4,0.4-9.41c0.77,0.15,2.32,0.45,3.1,0.61
			c0.7,12.73,2.25,25.67,7.45,37.45c2.68,5.06,5.81,10.45,11.15,13.09c3.53,1.89,8.16,1.36,11.13-1.34
			c7.84-6.68,10.81-16.94,13.45-26.4901c1.62-7.53,2.07-15.25,2.29-22.92C320.49,874.99,321.73,874.94,322.98,874.91z"/>
		<path fill="#AEE0E7" d="M322.91,1025.1c0.92,12.84-1.59,25.77-6.19,37.73c-3.66,7.37-8.04,16.01-16.79,18.0601
			c-8.7,2.36-16-5.04-20.21-11.73c-6.84-13.5-10.08-28.8301-9.55-43.9401c1.19-0.03,2.39-0.0499,3.59-0.0599
			c1.18,14.4099,2.19,29.61,9.94,42.26c2.9,4.36,6.7,9.1499,12.26,9.86c4.34-0.42,8.65-2.5901,11.1-6.28
			c9.42-13.23,12.04-29.92,12.21-45.8101C320.48,1025.15,321.69,1025.12,322.91,1025.1z"/>
		<path fill="#AEE0E7" d="M283.92,951.21c0.07,16.44-2.84,33.58-12.22,47.42c-3.17,5.1-8.92,8.7-14.97,8.83
			c-5.16-0.2401-9.86-3.2401-12.91-7.31c-4.09-5.39-7.03-11.63-8.94-18.1c-2.97-10.01-4.88-20.5-3.83-30.96
			c1.16,0.11,2.33,0.24,3.5,0.37c0.37,9.65,0.98,19.45,4.18,28.65c1.97,7.19,5.19,14.22,10.39,19.66c3.57,3.69,9.98,4.75,14.16,1.46
			c3.9-3.17,7.07-7.28,9.18-11.84c5.48-12,6.99-25.31,7.67-38.34C281.39,951.09,282.65,951.15,283.92,951.21z"/>
		<path fill="#AFDFE9" d="M237.86,685.15c19.63,12.22,31.25,35.88,29.22,58.89c-1.16,16.04-8.95,31.41-20.78,42.25
			c-12.09,11.33-28.78,17.42-45.32,16.79c-15.92-0.18-31.52-7.04-42.82-18.16c-19.96-18.95-25.28-51.46-11.98-75.64
			c9.21-17.4901,26.68-30.47,46.22-33.76C208.01,673.43,224.75,676.03,237.86,685.15z M238.33,754.48
			c6.55-14.37,2.96-32.53-8.59-43.3c-8.75-8.49-21.65-12.39-33.64-10.11c-8.84,1.57-17,6.44-22.71,13.35
			c-8.2,9.66-10.99,23.56-7.22,35.65c2.69,9.3,9.19,17.31,17.49,22.23c8.21,4.77,18.22,6.41,27.51,4.35
			C223.08,774.18,233.51,765.64,238.33,754.48z"/>
		<path fill="#AEE0E7" d="M244.59,875.3c-0.31,10.67-1.38,21.47-4.87,31.62c-1.7,6.5-4.91,12.54-9.2,17.69
			c-3.91,4.5-10.17,7.44-16.16,6.04c-6.92-1.9901-11.64-8.1-14.72-14.28c-6.35-12.76-8.37-27.26-8.49-41.37
			c1.25-0.04,2.51-0.06,3.77-0.08c0.71,5.01,0.69,10.08,1.32,15.11c1.28,9.47,3.98,18.8199,8.61,27.22
			c2.71,4.83,7.41,9.14,13.11,9.68c7.39-0.99,11.95-7.76,15.07-13.89c5.38-11.91,7.47-25.09,7.32-38.1
			C241.76,875.03,243.18,875.15,244.59,875.3z"/>
		<path fill="#ADE0E6" d="M244.52,1025.36c-0.12,14.4501-2.21,29.27-8.96,42.22c-3.3,5.15-6.85,11.14-13.13,12.9401
			c-4.33,1.5699-9.31,0.76-13.01-1.9401c-4.01-3.0199-7.39-6.9199-9.54-11.47c-6.45-12.95-8.59-27.58-8.7-41.91
			c1.23-0.0199,2.47-0.0299,3.7-0.0199c1.11,15.7,2.66,32.5,12.31,45.59c2.94,3.78,7.6,7.7,12.74,6.1899
			c5.44-1.1899,8.8-6.1,11.43-10.6c7.02-12.4399,8.8-26.99,9.2-41.04C241.88,1025.3199,243.2,1025.34,244.52,1025.36z"/>
		<path d="M229.74,711.18c11.55,10.77,15.14,28.93,8.59,43.3c-4.82,11.16-15.25,19.7-27.16,22.17c-9.29,2.06-19.3,0.42-27.51-4.35
			c-8.3-4.92-14.8-12.93-17.49-22.23c-3.77-12.09-0.98-25.99,7.22-35.65c5.71-6.91,13.87-11.78,22.71-13.35
			C208.09,698.79,220.99,702.69,229.74,711.18z M221.01,738.45c7.97-1.55,13.35-10.51,10.87-18.27
			c-2.08-8.07-11.79-12.94-19.47-9.51c-6.43,2.41-10.34,9.75-8.88,16.45C204.89,734.9,213.34,740.36,221.01,738.45z"/>
		<path fill="#FFFFFF" d="M231.88,720.18c2.48,7.76-2.9,16.72-10.87,18.27c-7.67,1.91-16.12-3.55-17.48-11.33
			c-1.46-6.7,2.45-14.04,8.88-16.45C220.09,707.24,229.8,712.11,231.88,720.18z"/>
		<path fill="#41210A" d="M222.15,1169.9301c2.94,6.62,6.15,13.8099,12.9,17.37c-70.93,8.23-141.36,20.46-211.12,35.6699
			c0.04-13.1599-0.14-26.3099,0.1-39.46c45.43-9.6801,91.17-17.9,137.09-24.84c2.16,2.1499,4.75,4.11,7.87,4.5199
			c6.34,1.2201,12.48-1.35,18.27-3.61c1.27,5.14,1.7,10.79,5.03,15.14c2.83,3.88,7.58,6.73,12.52,5.9301
			C211.87,1179.73,217.23,1174.62,222.15,1169.9301z"/>
		<path fill="#ADE0E7" d="M204.88,951.21c0.55,8.74-0.97,17.41-2.7,25.94c-2.23,9.24-5.9,18.48-12.53,25.48
			c-3.7,3.91-9.39,5.5-14.62,4.28c-5.02-0.66-8.32-4.87-11.29-8.54c-4.68-6.5-7.6-14.16-9.24-21.97c-1.87-8.27-2.98-16.77-2.4-25.26
			c1.22-0.01,2.44-0.02,3.67-0.01c0.05,10.4,1.47,20.79,4.41,30.78c1.67,5.98,4.92,11.41,8.72,16.27c3.01,3.16,7.48,6.11,12.03,4.72
			c4.94-1.4901,8.4-5.62,10.89-9.9301c6.98-12.71,9-27.3799,9.35-41.6899C202.41,951.25,203.64,951.22,204.88,951.21z"/>
		<path fill="#ADE0E7" d="M168,874.75c0.26,16.2-2.58,33.04-11.51,46.84c-3.58,4.52-8.23,9.58-14.52,9.3199
			c-7.95,0.67-13.68-6.25-17.52-12.29c-7.04-13.32-9.91-28.69-9.36-43.67c1.2,0.02,2.4,0.04,3.6,0.07
			c0.65,15.15,2.51,31.14,11.19,44.02c3.14,4.83,8.63,9.35,14.76,7.42c6.66-3.17,10.53-10,13.38-16.5
			c4.29-11.11,6.04-23.04,6.17-34.91C165.46,874.94,166.73,874.84,168,874.75z"/>
		<path fill="#41210A" d="M62.58,996.15c6.38,13.13,14.06,25.62,22.41,37.6c-18.15,2.84-36.39,5.1899-54.46,8.55
			c-0.25-13.6901-0.21-27.41-0.03-41.09C41.01,999.03,51.91,997.85,62.58,996.15z"/>
		<path fill="none" stroke="#603814" stroke-width="0.0938" d="M1389.41,1038.36c-1.29-5.64-0.41-11.49,1.09-16.99
			c3-10.63,8.97-20.22,16.26-28.43c-63.7-36.03-112.84-95.07-141.39-162.06c-37.6899-88.11-40.99-190.16-10.01-280.76
			c23.58-69.06,67.86-131.83,128.1901-173.49c1.5299-17.95,5.99-35.77,14.1-51.91c5.24-10.24,11.91-19.97,20.84-27.33
			c4.97-4.06,10.96-7.36,17.51-7.56c6.48,0.11,12.13,4.43,15.71,9.58c7.51,11.23,9.4501,25.06,11.11,38.19
			c18.27-5.74,37.14-9.44,56.0801-12.1c25.1699-3.11,50.84-2.02,75.66,3.13c5.86,1.27,11.7,2.64,17.59,3.83
			c1.03-10.12,2.8199-20.29,6.61-29.77c2.87-7.08,7.65-14.05,15.05-16.85"/>
		<path fill="none" stroke="#603814" stroke-width="0.0938" d="M1498.8199,1078.8c-3.34,2.5299-7.6699,3.85-11.84,3.2799
			c-3-0.4099-5.59-2.0199-8.37-3.0299"/>
		<path fill="none" stroke="#603814" stroke-width="0.0938" d="M1635.54,1032.36c-1.0901-5.34-1.4-10.8-1.36-16.23
			c-38.1801,12.61-79.0801,16.83-119.03,12.3099c0.1,3.13,0.2,6.28,0.1699,9.4401"/>
		<path fill="none" stroke="#603814" stroke-width="0.0938" d="M1633.8101,285.84c7.1-2.5,14.6399,0.79,20.3999,4.94
			c10.4601,7.75,17.9301,18.8,23.6901,30.33c6.5699,13.57,10.72,28.26,12.61,43.21c32.53,19.31,61.5,44.49,85.38,73.81
			c53.3099,65.06,81.6799,149.01,82.78,232.82c1.5699,82.96-23.36,166.87-73.1801,233.56c-16.1899,21.67-34.8099,41.61-55.86,58.62
			c11.3099,8.83,21.17,19.9,26.8099,33.23c3.3701,7.77,5.2101,16.44,3.6101,24.88c0.76-0.07,2.2799-0.23,3.0399-0.3"/>
		<path fill="none" stroke="#603814" stroke-width="0.0938" d="M62.58,996.15C25.52,922.2,19.22,833.92,43.42,755.01
			c14.87-48.38,41.56-93.37,78.32-128.31c1.24-1.42,3.52-2.47,3.35-4.66c0.1-20.62,4.25-41.35,12.95-60.09
			c5.83-12.26,13.55-24.09,24.58-32.29c5.68-4.05,13.01-7.4,20.04-5.06c7.48,2.57,12.35,9.51,15.27,16.53
			c4.16,10.27,5.96,21.33,7.03,32.31c44.95-17.43,95.31-20.53,142-8.45c2.37,0.61,4.74,1.23,7.13,1.8
			c1.15-10.96,2.97-22.07,7.54-32.18"/>
		<path fill="none" stroke="#603814" stroke-width="0.0938" d="M161.12,1158.67c-3.69-4.7101-3.97-11.15-2.84-16.8
			c1.97-10.28,7.52-19.5599,14.39-27.33c-34.91-19.76-64.83-47.91-87.68-80.79"/>
		<path fill="none" stroke="#603814" stroke-width="0.0938" d="M250.6,1185.4399c-4.31,3.3501-10.65,4.8-15.55,1.8601"/>
		<path fill="none" stroke="#603814" stroke-width="0.0938" d="M272.19,1145c-3.05-0.28-6.09-0.63-9.13-0.89
			c0.03,0.46,0.08,1.37,0.1,1.83"/>
		<path fill="none" stroke="#603814" stroke-width="0.0938" d="M386.24,1174.7c-1.5,0.3101-3.05,0.3-4.58,0.41"/>
		<path fill="none" stroke="#603814" stroke-width="0.0938" d="M511.21,1004.69c-17.25,32.6-41.09,61.71-69.52,85.2
			c9.19,6.6799,16.83,15.5699,21.67,25.88c2.68,5.7999,4.47,12.13,4.25,18.5699"/>
		<path fill="none" stroke="#603814" stroke-width="0.0938" d="M361.63,534.61c3.01-6.7,8.09-13.14,15.43-15.21
			c7.33-1.85,14.65,1.9,20.36,6.22c9.18,7.31,16.1,17.1,21.44,27.46c8.61,16.74,13.05,35.34,14.65,54.02
			c30.74,23.06,56.07,53,74.99,86.38c46.12,81.35,53.26,183.01,21.12,270.61"/>
		<path fill="none" stroke="#603814" stroke-width="0.0938" d="M700.83,970.72c-11.55-52.55-10.08-107.96,4.38-159.79
			c14.64-52.5,43.08-101.46,83.14-138.61c1.28-1.04,0.64-2.91,0.89-4.31c0.32-20.88,4.93-41.81,14.13-60.6
			c5.82-11.5,13.36-22.5699,23.96-30.16c5.68-3.98,13.08-7.03,19.98-4.49c7.65,2.92,12.35,10.28,15.22,17.58
			c3.81,9.93,5.5699,20.53,6.49,31.09c27.04-10.37,55.98-15.85,84.95-15.73c21.7,0.03,43.34,3.26,64.21,9.12
			c1.39-12.35,3.36-25.1,9.58-36.06"/>
		<path fill="none" stroke="#603814" stroke-width="0.0938" d="M829.02,1158.76l1.43,0.15
			c-54.53-33.1901-95.46-86.4501-117.32-146.1"/>
		<path fill="none" stroke="#603814" stroke-width="0.0938" d="M942.81,1219.21c-2.03,5.79-5.3,11.4601-10.38,15.0801
			c-4.32,3.22-10.67,3.48-15.15,0.46c-6.0601-3.8101-9.3-10.55-11.73-17.02c-4.04,3.91-8.13,8.12-13.6,9.9401
			c-4.73,1.84-10.56,1.1899-14.26-2.4501c-4.95-4.63-6.25-11.6799-6.87-18.13c-5.17,2.6801-10.89,4.8201-16.81,4.38
			c-4.19-0.21-8.25-2.47-10.47-6.03c-1.09-1.8899-1.72-3.99-2.79-5.86"/>
		<path fill="none" stroke="#603814" stroke-width="0.0938" d="M1013.93,1233.76c-2.93,0.88-5.81,2.3199-8.95,2
			c-3.98-0.15-7.53-2.45-10.25-5.2"/>
		<path fill="none" stroke="#603814" stroke-width="0.0938" d="M1166.76,1067.59c-23.0701,37.75-55.0601,70.3201-93.27,92.79
			c7.05,7.87,12.96,17.1801,15.14,27.65c1.3199,6.1,1.0599,13.1799-3.1901,18.14"/>
		<path fill="none" stroke="#603814" stroke-width="0.0938" d="M1027.76,578.76c3.7-6.49,10.4-12.32,18.29-11.85
			c9.84,0.97,17.7999,7.83,24.1,14.95c17.33,20.29,25.2,47.02,27.45,73.21c31.52,23.68,57.41,54.54,76.47,88.98
			c47.4901,85.74,52.12,193.38,13.5901,283.33"/>
		<path fill="none" stroke="#B4D232" stroke-width="0.0938" d="M1380.34,443.37c35.35-19.5,79.28-21.82,116.89-7.51
			c21.11,8.01,40.26,21.64,53.85,39.77c19.0701-25.41,48.78-41.67,79.88-46.86c32.87-5.73,67.9301,0.22,96.4301,17.81
			c15.15,8.01,29.25,18.43,39.9399,31.94c8.89,11.09,15.29,24.27,17.87,38.29c2.89,14.95,1.24,30.53-3.45,44.94
			c-1.85,6.43-5.0601,12.33-7.45,18.55c2.76-0.99,5.95-1.96,8.6699-0.23c5.52,3.52,8.8,9.49,11.85,15.1
			c7.7401,14.96,12.8,31.11,17.62,47.2c3.16,11.44,6.5901,22.88,7.8701,34.73c5.34,43.27,1.2799,87.32-8.52,129.67
			c-8.53,36.11-21.74,71.54-42.63,102.41c-21.17,31.57-49.0801,58.66-81.53,78.51c-40.73,25.15-88.8,37.98-136.62,36.9999
			c-42.46,0.8201-85.1-9.1599-122.63-29.08c-31.4-16.66-59.2-39.9-81.5-67.55c-20.5601-25.4-36.02-54.71-46.33-85.67
			c-13.5-40.33-20.74-82.8-21.0601-125.35c-0.02-16.63,1.05-33.31,3.88-49.72c2.9401-13.98,7.01-27.7,11.46-41.27
			c3.91-11.67,8.2001-23.31,14.26-34.06c2.76-4.66,5.87-9.54,10.75-12.21c2.55-1.44,5.4601-0.33,8,0.55
			c-2.75-7.09-6.24-13.89-8.24-21.26c-6.09-19.91-5.49-42.1,3.3301-61.12c7.5-16.68,20.24-30.6,35.09-41.09
			C1365.02,451.67,1372.86,447.8,1380.34,443.37z"/>
		<path fill="none" stroke="#B4D232" stroke-width="0.0938" d="M1526.03,605.05c11.8099,25.26,23.72,50.47,35.47,75.75
			c1.8101-3.53,2.9301-7.34,4.36-11.02c8.02-21.59,16.02-43.1801,24.04-64.77c-12.29-0.41-24.6-0.06-36.89-0.17
			C1544.01,604.95,1535.01,604.58,1526.03,605.05z"/>
		<path fill="none" stroke="#FDEE21" stroke-width="0.0938" d="M1520.17,540.13c0.36,13.92-3.04,27.94-9.9401,40.06
			c-7.91,14.34-20.8099,25.67-35.65,32.44c-14.95,6.47-31.99,8.57-47.9199,4.83c-19.26-4.11-36.62-16.1-47.51-32.47
			c-8.3201-12.32-12.97-27.16-12.8301-42.05c-0.5199-21.13,8.6001-42.19,24.02-56.6c11.9701-11.46,27.7101-18.76,44.1801-20.64
			c17.66-1.93,35.9299,2.21,50.76,12.07c16.83,10.99,29.21,28.81,33.27,48.54C1519.52,530.85,1520.05,535.49,1520.17,540.13z"/>
		<path fill="none" stroke="#FDEE21" stroke-width="0.0938" d="M1747.76,539.89c0.46,14.62-3.22,29.39-10.85,41.91
			c-7.6,12.46-18.6,23.02-31.8101,29.37c-17.12,8.76-37.65,10.48-56.0599,4.97c-17.8101-5.2-33.5-17.17-43.3401-32.89
			c-8.6799-13.31-12.59-29.47-11.7799-45.28c1.08-20.71,11.01-40.78,26.8099-54.21c11.65-10.06,26.39-16.38,41.6801-18.1
			c17.13-1.72,34.9,2.04,49.4099,11.45c16.42,10.27,28.78,26.92,33.4601,45.75C1746.75,528.42,1747.5699,534.14,1747.76,539.89z"/>
		<path fill="none" stroke="#000000" stroke-width="0.0938" d="M1434.65,496.83c17.99-3.58,37.48,4.74,47.3099,20.22
			c10.54,15.73,9.8401,37.99-1.7899,52.95c-11.3401,15.68-33.12,22.49-51.4,16.19c-18.9501-5.96-32.75-25.27-31.6901-45.2
			C1397.08,519.81,1413.84,500.37,1434.65,496.83z"/>
		<path fill="none" stroke="#000000" stroke-width="0.0938" d="M1456.42,507.61c-6.6001,1.69-11.89,7.61-12.79,14.38
			c-1.77,9.72,6.38,19.85,16.3099,19.93c8.0601,0.79,15.9601-5.07,17.92-12.85c2.15-7.49-1.49-16.12-8.35-19.81
			C1465.59,506.97,1460.78,506.58,1456.42,507.61z"/>
		<path fill="none" stroke="#000000" stroke-width="0.0938" d="M1662.52,496.77c17.73-3.38,36.91,4.69,46.75,19.84
			c11.23,16.29,10.12,39.82-2.6901,54.93c-10.85,13.53-29.6599,19.94-46.49,15.69c-17.38-3.91-31.64-18.8-34.7-36.36
			c-3.16-15.83,2.83-32.97,15.0599-43.47C1646.66,501.94,1654.4,498.28,1662.52,496.77z"/>
		<path fill="none" stroke="#000000" stroke-width="0.0938" d="M1683.49,507.76c-7.38,2.14-12.83,9.54-12.4,17.26
			c-0.0599,8.97,7.9701,17.03,16.9601,16.92c7.23,0.47,14.2899-4.28,16.8099-11.03c2.9401-7.17,0.35-16.05-5.96-20.53
			C1694.53,507.15,1688.67,506.29,1683.49,507.76z"/>
		<path fill="none" stroke="#000000" stroke-width="0.0938" d="M212.41,710.67c-6.43,2.41-10.34,9.75-8.88,16.45
			c1.36,7.78,9.81,13.24,17.48,11.33c7.97-1.55,13.35-10.51,10.87-18.27C229.8,712.11,220.09,707.24,212.41,710.67z"/>
		<path fill="none" stroke="#000000" stroke-width="0.0938" d="M401.53,710.85c-6.6,2.83-10.29,10.94-7.94,17.76
			c2.24,7.77,11.58,12.34,19.08,9.25c7.67-2.69,11.71-12.3,8.16-19.64C417.84,711,408.59,707.52,401.53,710.85z"/>
		<path fill="none" stroke="#000000" stroke-width="0.0938" d="M876.52,758.64c-6.35,2.44-10.34,9.64-8.91,16.32
			c1.24,7.5,9.05,12.99,16.54,11.66c8.52-1,14.52-10.53,11.79-18.66C893.75,759.99,884.11,755.3,876.52,758.64z"/>
		<path fill="none" stroke="#000000" stroke-width="0.0938" d="M1066.36,758.58c-5.8099,2.11-9.78,8.27-9.25,14.44
			c0.09,8.03,8.04,14.72,15.97,13.68c8.4501-0.57,14.99-9.62,12.77-17.83C1084.17,760.48,1074.26,755.22,1066.36,758.58z"/>
		<path fill="none" stroke="#C8EAF4" stroke-width="0.0938" d="M149.96,656.95c34.11-19.14,78.07-19.01,112.23-0.07
			c11.94,6.63,22.52,15.67,30.82,26.53c20.65-27.6299,55.96-41.71,89.92-40.74c16.28,0.46,32.55,4.1,47.22,11.25
			c4.89,2.31,9.43,5.27,14.19,7.83c15.33,8.65,28.92,21.07,37.08,36.82c6.94,13.17,9.33,28.6,6.96,43.27
			c-1.39,10.09-5.25,19.59-9.44,28.79c2.61-1.08,5.75-1.62,8.09,0.39c5.76,4.52,8.82,11.47,11.92,17.92
			c7.41,17.08,12.69,35.04,16.89,53.16c6,34.42,3.7,69.83-2.76,104.02c-5.29,26.68-13.29,53.01-25.74,77.27
			c-17.8,34.3099-44.65,63.92-77.26,84.71c-34.05,21.97-74.61,33.26-115.07,33.01c-25.75,0.37-51.65-3.28-75.95-11.9399
			c-48.96-17.12-90.68-53.03-116.23-98.02c-15.08-26.4301-24.2-55.86-30.1-85.59C68.27,922,65.97,897.98,66.77,874
			c0.65-13.79,1.73-27.7,5.49-41.04c4.48-16.6,9.34-33.23,16.95-48.69c2.8-5.2,5.67-10.96,11-13.97c2.12-1.42,4.56-0.31,6.72,0.33
			c-4.37-9.75-8.42-19.82-9.62-30.53c-2.44-17.0699,1.92-34.89,11.67-49.08c6.22-9.26,14.39-17.12,23.49-23.52
			C137.99,663.48,144.11,660.43,149.96,656.95z"/>
		<path fill="none" stroke="#C8EAF4" stroke-width="0.0938" d="M271.99,791.16c9.94,21.11,19.77,42.27,29.76,63.35
			c8.04-21.04,15.65-42.25,23.64-63.31C307.59,791.14,289.79,791.2,271.99,791.16z"/>
		<path fill="none" stroke="#AFDFE9" stroke-width="0.0938" d="M192.4,675.52c15.61-2.09,32.35,0.51,45.46,9.63
			c19.63,12.22,31.25,35.88,29.22,58.89c-1.16,16.04-8.95,31.41-20.78,42.25c-12.09,11.33-28.78,17.42-45.32,16.79
			c-15.92-0.18-31.52-7.04-42.82-18.16c-19.96-18.95-25.28-51.46-11.98-75.64C155.39,691.79,172.86,678.81,192.4,675.52z"/>
		<path fill="none" stroke="#AFDFE9" stroke-width="0.0938" d="M196.1,701.07c-8.84,1.57-17,6.44-22.71,13.35
			c-8.2,9.66-10.99,23.56-7.22,35.65c2.69,9.3,9.19,17.31,17.49,22.23c8.21,4.77,18.22,6.41,27.51,4.35
			c11.91-2.47,22.34-11.01,27.16-22.17c6.55-14.37,2.96-32.53-8.59-43.3C220.99,702.69,208.09,698.79,196.1,701.07z"/>
		<path fill="none" stroke="#AFDFE9" stroke-width="0.0938" d="M456.89,738.1c0.1,5.66-0.53,11.33-1.94,16.84
			c-6.16,25.28-29.24,45.59-55.27,47.76c-26.02,3.29-53.04-11.44-64.38-35.08c-7.63-14.92-8.65-32.9-3.49-48.77
			c7.26-22.9,28.58-40.89,52.55-43.48c23.35-3.42,47.98,7.64,61.25,27.06C452.74,712.89,456.65,725.46,456.89,738.1z"/>
		<path fill="none" stroke="#AFDFE9" stroke-width="0.0938" d="M382.54,701.8c-10.03,2.76-18.86,9.68-23.73,18.89
			c-5.04,9.16-5.94,20.4-2.7,30.3c3.12,9.71,10.32,18,19.47,22.48c8.65,4.4,19.01,5.23,28.28,2.39
			c10.25-3.05,19.06-10.61,23.64-20.27c5.08-10.4901,5.02-23.33-0.26-33.7401C419.55,705.67,399.76,696.74,382.54,701.8z"/>
		<path fill="none" stroke="#FDE3EE" stroke-width="0.0938" d="M825.54,699.36c31.22-12.9,68.07-11.46,98.09,4.06
			c12.99,6.77,24.59,16.27,33.44,27.96c10.76-14.2,25.54-25.16,41.99-31.93c22.73-9.42,48.43-11.25,72.36-5.64
			c15.84,3.48,30.13,11.46,43.72,20.03c16.0699,10.58,29.63,25.96,35.24,44.62c4.63,14.83,3.61,31.0099-1.37,45.62
			c-1.53,5.04-3.99,9.71-5.98,14.56c2.5599-1.02,5.62-1.69,7.95,0.28c5.6801,4.33,8.71,11.08,11.77,17.34
			c5.33,11.86,9.28,24.28,12.88,36.77c2.13,7.78,4.37,15.5699,5.42,23.59c3.75,26.66,2.7799,53.82-0.99,80.42
			c-5.8,38.81-16.9901,77.55-38.14,110.92c-19.2301,30.36-45.86,56.0601-77.15,73.8c-32.88,18.78-70.96,28.21-108.8,27.14
			c-40.34,0.87-80.79-10.53-114.86-32.1c-31.46-19.77-57.66-47.7301-75.62-80.2301c-9.38-16.9099-16.26-35.1-21.63-53.64
			c-6.52-22.79-10.64-46.26-12.34-69.9c-1.66-26.1-1.13-52.84,6.47-78.0601c3.83-13.6,8.07-27.16,14.01-40.0099
			c2.95-5.94,5.97-12.38,11.57-16.28c2.23-1.72,5.04-1.06,7.42-0.03c-3.49-8.42-7.31-16.81-8.84-25.87
			c-2.92-14.79-1.2-30.54,5.42-44.13c7.34-15.44,20.02-27.8,34.41-36.7401C809.71,707.51,817.28,702.75,825.54,699.36z"/>
		<path fill="none" stroke="#FDE3EE" stroke-width="0.0938" d="M936.11,839.18c9.84,20.89,19.62,41.82,29.41,62.73
			c1.34-0.09,1.11-1.98,1.75-2.8199c7.37-19.95,14.63-39.95,22.26-59.8C971.72,839.06,953.91,839.27,936.11,839.18z"/>
		<path fill="none" stroke="#603515" stroke-width="0.0938" d="M1429.29,705.28c1.35-0.02,2.73-0.03,4.13-0.03
			c-0.02,12.75,1.6699,25.57,5.6,37.73c2.25,6.57,5.12,13.09,9.65,18.44c3.13,3.6,7.33,6.81,12.3099,6.87
			c5.23-0.13,9.6-3.66,12.79-7.53c4.7-5.95,7.7-13.06,9.88-20.28c3.4-11.4,4.8099-23.34,4.7999-35.22
			c1.3101-0.06,2.64-0.11,3.99-0.15c0.26,10-0.9199,20.02-3.0699,29.78c-2.27,9.8-5.66,19.6-11.8099,27.68
			c-3.5701,4.7-8.53,8.81-14.55,9.64c-5.99,0.85-11.83-2.17-15.9-6.37c-5.25-5.52-8.75-12.45-11.2999-19.56
			C1431.1801,733.14,1429.41,719.16,1429.29,705.28z"/>
		<path fill="none" stroke="#603515" stroke-width="0.0938" d="M1615.5,705.3c1.35-0.03,2.72-0.06,4.12-0.06
			c0.05,11.85,1.41,23.78,4.83,35.16c2.3501,7.62,5.4601,15.2599,10.74,21.37c3.42,3.91,8.4601,7.27,13.9,6.34
			c7.14-1.49,11.8201-7.79,15.16-13.81c7.91-14.99,10.26-32.28,10.42-49.03c1.34-0.02,2.7-0.03,4.1-0.03
			c-0.02,12.05-1.4,24.14-4.75,35.73c-2.61,8.82-6.36,17.55-12.62,24.42c-3.9501,4.16-9.48,7.44-15.4,6.91
			c-4.67-0.33-8.9-2.81-12.16-6.04c-5.46-5.34-8.97-12.31-11.59-19.4C1617.42,733.58,1615.64,719.37,1615.5,705.3z"/>
		<path fill="none" stroke="#603514" stroke-width="0.0938" d="M1523.88,705.26c1.34-0.01,2.7-0.01,4.08,0
			c0.1901,13.07,1.67,26.25,6,38.65c2.3,6.51,5.1901,13,9.89,18.16c2.91,3.18,6.7101,5.94,11.16,6.21
			c4.52,0.18,8.6-2.47,11.62-5.6201c5.21-5.47,8.37-12.5,10.78-19.5699c4.11-12.17,5.45-25.07,5.75-37.85
			c1.2899-0.02,2.61-0.04,3.9399-0.04c-0.0699,17.71-2.7,36.01-11.26,51.76c-3.5299,6.22-8.4399,12.29-15.4399,14.65
			c-5.64,1.89-11.9301,0.08-16.37-3.66c-6.22-5.19-10.11-12.56-13-19.99C1525.84,734.37,1524.05,719.73,1523.88,705.26z"/>
		<path fill="none" stroke="#603514" stroke-width="0.0938" d="M1429.33,885.52c1.3301,0.01,2.6901,0.04,4.0601,0.07
			c0.1,13.67,1.87,27.46,6.58,40.35c2.3,6.19,5.29,12.31,9.92,17.12c2.9299,2.99,6.75,5.64,11.13,5.52
			c4.5699,0,8.5599-2.83,11.52-6.08c5.86-6.62,9.2-15.02,11.62-23.41c2.99-10.89,4.3199-22.22,4.2899-33.5
			c1.03-0.01,3.0901-0.03,4.1101-0.04c-0.1901,17.42-2.65,35.39-10.88,50.97c-3.77,6.84-9.14,13.79-17.1001,15.74
			c-6.26,1.58-12.71-1.3-17.08-5.72c-5.39-5.46-8.95-12.44-11.5601-19.57C1431.21,913.7,1429.38,899.55,1429.33,885.52z"/>
		<path fill="none" stroke="#613414" stroke-width="0.0938" d="M1707.2,705.23c1.3301,0.02,2.6901,0.04,4.0901,0.09
			c0,14.03,1.9299,28.21,6.9299,41.38c2.5901,6.51,5.91,13.06,11.3,17.71c3.4399,3.05,8.4,4.9,12.9199,3.2401
			c7.0701-2.5,11.38-9.26,14.6201-15.64c6.9399-14.53,9.09-30.85,9.3099-46.8c1.34,0.03,2.71,0.06,4.12,0.11
			c-0.23,14.01-1.9299,28.15-6.71,41.39c-2.97,7.97-7.04,15.9-13.72,21.38c-4.55,3.8-11.04,5.46-16.7001,3.33
			c-7.0499-2.65-11.91-8.96-15.38-15.37C1709.86,740.48,1707.3199,722.6,1707.2,705.23z"/>
		<path fill="none" stroke="#613514" stroke-width="0.0938" d="M1337.64,705.3c1.02-0.02,3.0599-0.06,4.08-0.09
			c0.29,16.91,2.65,34.32,10.7001,49.43c3.4099,6.02,8.2999,12.4,15.59,13.57c5.37,0.62,10.13-2.84,13.49-6.69
			c4.48-5.36,7.48-11.82,9.6899-18.41c4.01-12.19,5.6201-25.07,5.6201-37.87c1.36,0.02,2.74,0.06,4.1399,0.11
			c-0.1599,13.94-1.85,28-6.58,41.1801c-2.61,7.08-6.12,13.99-11.39,19.47c-4.13,4.16-10,7.14-15.98,6.19
			c-7.4399-1.2-13.05-7.12-16.84-13.27C1340.6,742.85,1337.97,723.71,1337.64,705.3z"/>
		<path fill="none" stroke="#613514" stroke-width="0.0938" d="M1568.1801,797.01c1.36-0.11,2.74-0.21,4.1399-0.29
			c0.0901,13.91,1.87,27.97,6.78,41.05c2.4501,6.39,5.62,12.72,10.63,17.5c2.5,2.4,5.6801,4.37,9.24,4.55
			c4.22,0.43,8.1901-1.83,11.14-4.67c5.72-5.56,9.1-12.9901,11.66-20.4301c3.91-11.8199,5.4199-24.31,5.66-36.72
			c-0.12-2.14,2.85-0.8,4.0699-1.27c-0.0699,11.2-1.21,22.45-4.04,33.31c-2.47,9.08-5.98,18.11-12,25.46
			c-3.84,4.55-9.2,8.55-15.4099,8.42c-4.5,0.16-8.8-1.83-12.12-4.76c-5.9701-5.1299-9.7301-12.28-12.54-19.5099
			C1570.1899,826.07,1568.42,811.46,1568.1801,797.01z"/>
		<path fill="none" stroke="#613514" stroke-width="0.0938" d="M1659.8101,796.82c1.3199,0,2.6599,0.01,4.0199,0.03
			c0.42,8.8,0.8101,17.64,2.7101,26.28c2.33,10.76,5.7899,21.75,12.99,30.32c3.61,4.23,9.27,7.63,15.01,6.04
			c6.6499-1.98,11.02-7.99,14.1899-13.81c7.8201-14.99,9.98-32.15,10.42-48.83c1.33-0.02,2.6899-0.02,4.0699-0.0099
			c-0.45,17.99-2.8099,36.6299-11.84,52.52c-3.38,5.77-7.97,11.33-14.4301,13.69c-5.6799,2.04-12.1899,0.49-16.76-3.31
			c-6.2899-5.13-10.1699-12.55-13.12-19.96C1661.79,826.11,1660.09,811.38,1659.8101,796.82z"/>
		<path fill="none" stroke="#F9C3D1" stroke-width="0.0938" d="M858.31,723.42c12.7-1.91,25.79,0.55,37.35,5.97
			c13.72,7.04,25.21,18.83,30.88,33.27c8.12,19.2401,5.84,42.54-5.96,59.79c-12.77,19.78-37.15,31.27-60.54,28.25
			c-17.31-1.57-33.36-11.16-43.99-24.75c-9.92-13.05-14.48-30.02-12.6-46.29C805.96,751.27,830.11,726.82,858.31,723.42z"/>
		<path fill="none" stroke="#F9C3D1" stroke-width="0.0938" d="M857.47,749.68c-11.89,2.96-21.98,12.08-26.29,23.53
			c-3.79,9.71-3.28,20.95,1.2,30.35c4.08,8.45,11.27,15.43,19.99,18.99c9.51,3.99,20.66,3.94,30.11-0.23
			c9.37-4.01,17-11.91,20.63-21.44c4.04-10.31,3.3-22.37-1.96-32.12C893.21,753.38,874.17,745.01,857.47,749.68z"/>
		<path fill="none" stroke="#F9C3D1" stroke-width="0.0938" d="M1047.27,723.43c19.12-2.83,39.4399,3.42,53.46,16.75
			c12.6801,11.57,20.1801,28.6,20.15,45.77c0.71,19.5-8.54,39-23.84,51.04c-14.52,11.95-34.5601,16.6-52.9301,12.84
			c-12.79-2.24-24.49-9.11-33.44-18.42c-15.78-15.67-21.68-40.08-15.74-61.4C1001.15,745.97,1022.7,726.87,1047.27,723.43z"/>
		<path fill="none" stroke="#F9C3D1" stroke-width="0.0938" d="M1046.47,749.85c-12.6,3.4301-23.0099,13.69-26.6,26.25
			c-3.55,11.87-0.92,25.4,6.9401,35.01c6.37,8,16.0599,13.26,26.2699,14.2c10.88,1.12,22.17-2.65,30.0801-10.23
			c12.5399-11.28,15.8199-31.11,7.86-45.93C1083.0601,753.34,1063.48,744.75,1046.47,749.85z"/>
		<path fill="none" stroke="#613515" stroke-width="0.0938" d="M1382.11,796.8c1.33,0.01,2.6901,0.04,4.0601,0.07
			c-0.05,11.85,1.36,23.75,4.74,35.12c2.4099,7.85,5.6699,15.68,11.1699,21.9c3.5901,3.99,9,7.15,14.54,5.62
			c7.13-2.14,11.62-8.76,14.88-15.05c7.3-14.72,9.45-31.4,9.74-47.65c1.34,0,2.7,0.02,4.09,0.05
			c-0.2999,17.79-2.7899,36.17-11.48,51.98c-3.71,6.34-8.7999,12.7-16.22,14.66c-5.62,1.42-11.59-0.48-15.85-4.26
			c-5.98-5.12-9.76-12.28-12.5901-19.51C1384.04,826.06,1382.02,811.36,1382.11,796.8z"/>
		<path fill="none" stroke="#613515" stroke-width="0.0938" d="M1523.8,885.57c1.3999,0.01,2.8199,0.02,4.26,0.05
			c-0.03,13.5,1.75,27.12,6.3099,39.87c2.3199,6.23,5.28,12.39,9.84,17.31c3.04,3.2,7.11,5.98,11.73,5.77
			c5.27-0.22,9.6201-3.93,12.7401-7.9c6.5699-8.62,9.83-19.25,11.97-29.74c1.7899-8.34,2.2-16.87,2.46-25.37
			c1.35-0.01,2.72-0.01,4.12,0.01c-0.4,18.06-2.84,36.79-11.95,52.71c-3.5701,5.87-8.38,11.71-15.2101,13.74
			c-5.6,1.71-11.7999-0.08-16.13-3.86c-7.2699-6.2-11.47-15.15-14.3799-24.0699C1525.41,911.69,1524.16,898.57,1523.8,885.57z"/>
		<path fill="none" stroke="#603613" stroke-width="0.0938" d="M1476.62,796.78c1.34,0.05,2.71,0.1,4.09,0.17
			c0.03,13.27,1.76,26.64,6.15,39.2c2.71,7.54,6.35,15.17,12.6801,20.35c3.4299,2.87,8.3099,4.28,12.64,2.71
			c5.97-2.22,9.96-7.64,12.99-12.9901c8.0199-15.09,10.39-32.49,10.6499-49.37c1.3101-0.03,2.65-0.04,4-0.05
			c-0.0099,13.75-1.7599,27.6-6.2799,40.63c-2.6801,7.64-6.4301,15.15-12.3201,20.84c-3.5,3.41-8.23,5.85-13.21,5.65
			c-5.47,0.06-10.4-3.06-14.03-6.92c-5.76-6.14-9.24-14-11.85-21.9C1478.24,822.73,1476.63,809.72,1476.62,796.78z"/>
		<path fill="none" stroke="#ADE0E7" stroke-width="0.0938" d="M115.09,874.95c1.2,0.02,2.4,0.04,3.6,0.07
			c0.65,15.15,2.51,31.14,11.19,44.02c3.14,4.83,8.63,9.35,14.76,7.42c6.66-3.17,10.53-10,13.38-16.5
			c4.29-11.11,6.04-23.04,6.17-34.91c1.27-0.11,2.54-0.21,3.81-0.3c0.26,16.2-2.58,33.04-11.51,46.84
			c-3.58,4.52-8.23,9.58-14.52,9.3199c-7.95,0.67-13.68-6.25-17.52-12.29C117.41,905.3,114.54,889.93,115.09,874.95z"/>
		<path fill="none" stroke="#ADE0E7" stroke-width="0.0938" d="M346.24,874.99c1.43,0.07,2.86,0.18,4.3,0.33
			c0.14,8.19,0.6,16.45,2.77,24.4c2.19,8.72,5.54,17.53,11.99,24.03c3.14,3.21,8.42,4.21,12.41,2.04c4.55-2.41,7.6-6.81,9.73-11.36
			c6.01-12.09,8.08-25.76,8.03-39.15c1.43-0.1,2.86-0.1801,4.3-0.26c-0.37,15.5-2.51,31.64-10.68,45.14
			c-3.44,5.6201-9.03,10.92-16.06,10.76c-7.7,0.53-13.29-6.06-16.93-12.02C348.66,905.56,346.67,890.03,346.24,874.99z"/>
		<path fill="none" stroke="#ADE0E7" stroke-width="0.0938" d="M152.1,951.14c1.22-0.01,2.44-0.02,3.67-0.01
			c0.05,10.4,1.47,20.79,4.41,30.78c1.67,5.98,4.92,11.41,8.72,16.27c3.01,3.16,7.48,6.11,12.03,4.72
			c4.94-1.4901,8.4-5.62,10.89-9.9301c6.98-12.71,9-27.3799,9.35-41.6899c1.24-0.03,2.47-0.0601,3.71-0.07
			c0.55,8.74-0.97,17.41-2.7,25.94c-2.23,9.24-5.9,18.48-12.53,25.48c-3.7,3.91-9.39,5.5-14.62,4.28
			c-5.02-0.66-8.32-4.87-11.29-8.54c-4.68-6.5-7.6-14.16-9.24-21.97C152.63,968.13,151.52,959.63,152.1,951.14z"/>
		<path fill="none" stroke="#ADE0E7" stroke-width="0.0938" d="M307.21,951.2c1.19-0.02,2.39-0.02,3.6-0.01
			c0.65,11.99,1.48,24.34,6.52,35.43c2.4,6.51,6.17,13.36,12.97,16.04c5.76,2.25,11.39-2.33,14.73-6.64
			c8.83-13.09,10.79-29.43,11.22-44.85c1.21-0.05,2.43-0.09,3.65-0.12c0.62,8.27-0.32,16.58-2.24,24.63
			c-2.11,10.02-5.96,20.23-13.56,27.39c-5.5,5.69-15.65,5.65-21.19,0.01c-6.94-6.67-10.43-16-12.9-25.1
			C308.04,969.2,306.68,960.22,307.21,951.2z"/>
		<path fill="none" stroke="#ADE0E7" stroke-width="0.0938" d="M383.26,953.08c-0.26-2.11,2.14-1.74,3.5-2.03
			c1.43,9.89,1.35,20.07,4.58,29.66c2.57,6.86,5.12,14.17,10.8,19.14c3.56,3.59,10.03,4.92,14.07,1.38
			c8.72-7.36,12.44-18.7,14.5-29.54c1.54-6.73,1.58-13.66,1.68-20.51c1.4,0.06,2.8,0.14,4.2,0.23
			c-0.1,14.7401-2.23,29.85-9.33,42.97c-2.64,4.7-6.21,9.15-11.05,11.7c-4.55,1.8-10.07,1.67-14.2-1.12
			c-4.35-2.94-7.81-7.11-10.01-11.86C385.54,980.84,383.75,966.74,383.26,953.08z"/>
		<path fill="none" stroke="#ADE0E7" stroke-width="0.0938" d="M346.27,1025.22c1.21-0.01,2.43-0.01,3.65,0.01
			c0.92,4.78,0.71,9.6801,1.41,14.5c1.04,9.28,3.95,18.3101,8.19,26.62c2.1,4.28,5.46,8.05,9.79,10.15
			c4.22,1.86,8.83-0.35,12.01-3.1899c4.81-4.3301,7.15-10.6001,9.51-16.4501c3.23-10.14,4.73-20.8199,4.68-31.45
			c1.41-0.12,2.81-0.2201,4.22-0.3101c-0.22,14.79-2.11,30.14-9.49,43.24c-3.2,5.17-7.1,10.8301-13.36,12.41
			c-5.18,1.59-10.92-0.21-14.65-4.03c-5.48-4.7-8.44-11.49-10.82-18.13C347.91,1047.84,346.4,1036.49,346.27,1025.22z"/>
		<path fill="none" stroke="#AEE0E7" stroke-width="0.0938" d="M191.15,875c1.25-0.04,2.51-0.06,3.77-0.08
			c0.71,5.01,0.69,10.08,1.32,15.11c1.28,9.47,3.98,18.8199,8.61,27.22c2.71,4.83,7.41,9.14,13.11,9.68
			c7.39-0.99,11.95-7.76,15.07-13.89c5.38-11.91,7.47-25.09,7.32-38.1c1.41,0.09,2.83,0.21,4.24,0.36
			c-0.31,10.67-1.38,21.47-4.87,31.62c-1.7,6.5-4.91,12.54-9.2,17.69c-3.91,4.5-10.17,7.44-16.16,6.04
			c-6.92-1.9901-11.64-8.1-14.72-14.28C193.29,903.61,191.27,889.11,191.15,875z"/>
		<path fill="none" stroke="#AEE0E7" stroke-width="0.0938" d="M270.28,884.06c-0.23-3.14-0.8-6.4,0.4-9.41
			c0.77,0.15,2.32,0.45,3.1,0.61c0.7,12.73,2.25,25.67,7.45,37.45c2.68,5.06,5.81,10.45,11.15,13.09c3.53,1.89,8.16,1.36,11.13-1.34
			c7.84-6.68,10.81-16.94,13.45-26.4901c1.62-7.53,2.07-15.25,2.29-22.92c1.24-0.06,2.48-0.11,3.73-0.14
			c0.65,12.82-1.69,25.75-6.37,37.7c-3.03,6.95-7.4,14.22-14.73,17.24c-5.98,2.56-13.12,0.33-17.21-4.56
			C274.69,914.04,271.65,898.59,270.28,884.06z"/>
		<path fill="none" stroke="#AEE0E7" stroke-width="0.0938" d="M422.83,876.93c-0.37-2.42,2.27-1.89,3.8-2.01
			c0.52,14.8,2.47,30.19,10.34,43.06c2.94,4.4,7.2,9.19,13,8.94c6-0.79,10.03-6.02,13.09-10.78c6.65-12.73,8.52-27.23,9.15-41.4
			c1.18,0.01,2.34,0.16,3.48,0.47c1.04,8.42-0.83,16.88-2.32,25.14c-2.82,10.17-6.47,21.15-15.32,27.69
			c-5.1,4.1-12.81,3.84-17.85-0.23c-8.43-6.27-11.61-16.96-14.54-26.57C423.97,893.27,422.69,885.09,422.83,876.93z"/>
		<path fill="none" stroke="#AEE0E7" stroke-width="0.0938" d="M231.05,951.09c1.16,0.11,2.33,0.24,3.5,0.37
			c0.37,9.65,0.98,19.45,4.18,28.65c1.97,7.19,5.19,14.22,10.39,19.66c3.57,3.69,9.98,4.75,14.16,1.46
			c3.9-3.17,7.07-7.28,9.18-11.84c5.48-12,6.99-25.31,7.67-38.34c1.26,0.04,2.52,0.1,3.79,0.16c0.07,16.44-2.84,33.58-12.22,47.42
			c-3.17,5.1-8.92,8.7-14.97,8.83c-5.16-0.2401-9.86-3.2401-12.91-7.31c-4.09-5.39-7.03-11.63-8.94-18.1
			C231.91,972.04,230,961.55,231.05,951.09z"/>
		<path fill="none" stroke="#AEE0E7" stroke-width="0.0938" d="M270.17,1025.22c1.19-0.03,2.39-0.0499,3.59-0.0599
			c1.18,14.4099,2.19,29.61,9.94,42.26c2.9,4.36,6.7,9.1499,12.26,9.86c4.34-0.42,8.65-2.5901,11.1-6.28
			c9.42-13.23,12.04-29.92,12.21-45.8101c1.21-0.0399,2.42-0.0699,3.64-0.09c0.92,12.84-1.59,25.77-6.19,37.73
			c-3.66,7.37-8.04,16.01-16.79,18.0601c-8.7,2.36-16-5.04-20.21-11.73C272.88,1055.66,269.64,1040.33,270.17,1025.22z"/>
		<path fill="none" stroke="#613415" stroke-width="0.0938" d="M1674.6801,885.59c1.34-0.03,2.6799-0.05,4.0699-0.05
			c-0.11,17.03-2.52,34.53-10.28,49.88c-3.4099,6.52-8.08,13.02-15.0599,16c-5.67,2.46-12.4401,1.1-17.17-2.72
			c-6.95-5.5-11.1-13.68-14.1-21.84c-4.8-13.2-6.49-27.33-6.62-41.3c1.02,0,3.08,0.01,4.11,0.02c0.02,11.77,1.41,23.6,4.73,34.92
			c2.41,7.89,5.64,15.79,11.21,22.03c3.12,3.48,7.4901,6.3199,12.3601,6.04c5-0.34,9.0399-3.84,12.09-7.55
			c5.24-6.56,8.28-14.55,10.54-22.56C1673.45,907.76,1674.66,896.65,1674.6801,885.59z"/>
		<path fill="none" stroke="#FAC2D1" stroke-width="0.0938" d="M904.37,923.02c1.42-0.49,2.9-0.47,4.33,0.05
			c-0.38,16.36-2.78,33.57-12.3,47.33c-3.85,5.78-11.03,9.9-18.06,8.14c-8.1201-2.5099-13.01-10.23-16.27-17.59
			c-4.6-11.69-6.81-24.34-6.67-36.88c-0.12-2.05,2.47-1,3.65-1.27c0.82,11.5,1.62,23.24,5.98,34.06
			c2.52,5.99,5.34,12.42,10.97,16.15c3.47,2.51,8.5,2.32,12.04,0.03c4.29-3.5,7.53-8.21,9.65-13.31
			C902.56,948.18,904.66,935.53,904.37,923.02z"/>
		<path fill="none" stroke="#FAC2D1" stroke-width="0.0938" d="M779.01,922.93c1.25-0.03,2.51-0.05,3.78-0.05
			c0.66,13.1,2.04,26.54,7.78,38.52c2.16,4.79,5.37,9.28,9.86,12.13c4.42,2.54,10.17,1.18,13.56-2.46
			c7.81-8.15,10.84-19.53,12.67-30.36c1.21-5.83,1.2-11.79,1.59-17.69c1.24-0.1,2.49-0.18,3.76-0.25
			c0.52,12.54-1.57,25.24-6.2,36.92c-2.65,6.46-6.38,12.85-12.23,16.89c-3.67,2.73-8.69,2.84-12.93,1.62
			c-7.94-3.55-12.47-11.54-15.62-19.24C780.6,947.54,778.79,935.14,779.01,922.93z"/>
		<path fill="none" stroke="#FAC2D1" stroke-width="0.0938" d="M1086.83,926.99c0-1.5-0.4299-3.36,1.14-4.25
			c0.7101,0.06,2.12,0.17,2.8201,0.22c0.12,11.93,2.0399,23.92,6.1699,35.13c2.74,6.02,6.0901,12.52,12.23,15.68
			c3.8,2.03,8.5901,0.84,11.6801-1.95c3.9401-3.53,6.65-8.23,8.84-12.98c4.4601-11.44,6.38-23.77,6.4601-36.02
			c1.1899,0.24,3.7899-0.74,3.86,1.23c0.3199,6.54-0.7001,13.1-1.64,19.58c-2.11,10.4-5.38,21.06-12.51,29.2
			c-3.21,3.67-7.85,6.38-12.85,6.07c-7.3101,0.08-12.4601-6.22-16.23-11.71C1089.9301,954.99,1087.49,940.83,1086.83,926.99z"/>
		<path fill="none" stroke="#FAC2D1" stroke-width="0.0938" d="M816.09,999.17c1.23,0,2.48,0.01,3.73,0.04
			c0.38,9.14,1.05,18.35,3.63,27.19c1.96,7.52,5,15.01,10.33,20.7999c2.9,2.74,7.1,4.92,11.17,3.67c5.47-1.61,9.05-6.52,11.74-11.24
			c6.46-12.39,8.06-26.58,8.62-40.34c1.22-0.05,2.45-0.08,3.69-0.1c0.54,11.75-1.56,23.59-5.3,34.71
			c-2.76,6.88-6.06,14.09-12.26,18.53c-4.09,3.0599-9.86,3.8999-14.52,1.7c-6.66-2.78-10.53-9.39-13.61-15.55
			C818.03,1026.21,815.61,1012.6,816.09,999.17z"/>
		<path fill="none" stroke="#FAC2D1" stroke-width="0.0938" d="M1047.45,999.3c1.3301,0.02,2.6801,0.06,4.04,0.1
			c-0.01,11.39,1.65,22.84,5.5601,33.5699c2.37,5.8,5.3099,11.66,10.1699,15.8101c3.7001,3.27,9.9,3.37,13.5801,0.01
			c2.87-2.49,5.33-5.48,7.1599-8.8c5.63-10.78,8.0901-22.98,8.39-35.06c0.05-1.68,0.1-3.36,0.4501-4.99
			c0.87-1.13,2.5499-0.45,3.7899-0.72c0.4501,8.34-0.85,16.66-2.52,24.8101c-1.7799,7.99-4.71,15.85-9.4299,22.59
			c-3.6801,4.83-9.21,9.34-15.65,8.71c-6.98-0.5299-12.13-6.1499-15.5599-11.76C1049.79,1030.1899,1047.59,1014.5,1047.45,999.3z"/>
		<path fill="none" stroke="#FAC2D1" stroke-width="0.0938" d="M855.5,1074.33c-0.01-1.83,2.08-1.2,3.2-1.0299
			c0.91,1.0199,0.65,2.5399,0.85,3.8199c0.26,9.66,1.78,19.36,4.89,28.52c2.8,6.87,5.91,14.45,12.73,18.26
			c3.56,2.3099,8.35,1.33,11.52-1.2101c4.04-3.1699,6.68-7.73,8.8-12.3199c5.16-11.65,7-24.54,6.93-37.21
			c1.41,0,2.82,0.01,4.26,0.0399c-0.14,9.12-1.08,18.28-3.24,27.16c-2.4,8.41-5.51,17-11.72,23.41c-3.91,4.4-10.46,6.79-16.15,4.76
			c-4.49-1.4-7.89-4.91-10.6-8.5901c-6.21-8.84-8.87-19.5599-10.5099-30.09C855.97,1084.6899,855.07,1079.51,855.5,1074.33z"/>
		<path fill="none" stroke="#FAC2D1" stroke-width="0.0938" d="M1010.42,1073.14c1.38,0,2.77,0.02,4.17,0.0499
			c0.09,12.65,1.67,25.5901,7.02,37.1801c2.51,5.4,5.73,11.0601,11.3,13.79c6.7899,3.36,13.83-2.65,16.9299-8.39
			c7.86-12.73,9.2001-28.05,10.1901-42.62c1.24-0.02,2.49-0.02,3.75-0.01c0.1699,10.54-1.3401,21.12-4.37,31.21
			c-2.78,8.05-6.1901,16.5701-13.26,21.8201c-4.24,3.2799-10.29,4.09-15.14,1.73c-5.7-2.72-9.38-8.1901-12.24-13.6
			C1012.6,1101.53,1010.45,1087.21,1010.42,1073.14z"/>
		<path fill="none" stroke="#FAC2D0" stroke-width="0.0938" d="M934.2,923.15c0.78-0.19,2.34-0.56,3.12-0.75
			c1.8,4.67,0.74,9.81,1.72,14.65c1.63,9.19,3.16,18.73,8.06,26.85c2.6,4.49,5.98,9.0699,11.15,10.7c4.64,1.04,9.63-1.22,12.31-5.09
			c10.07-12.68,12.05-29.6,12.96-45.25c0.04-2.5,4.58-1.85,3.78,0.76c-0.02,11.88-2.01,23.87-6.34,34.98
			c-2.86,6.52-6.59,13.18-12.78,17.07c-5.38,2.99-12.76,2.38-17.34-1.83c-5.95-5.28-9.59-12.66-12.02-20.11
			C935.54,944.82,934.06,933.95,934.2,923.15z"/>
		<path fill="none" stroke="#FAC2D0" stroke-width="0.0938" d="M1010.36,922.99c1.41-0.13,2.83-0.14,4.27-0.05
			c-0.14,11.79,1.67,23.66,5.83,34.72c2.47,5.94,5.6099,12.13,11.27,15.6201c3.59,2.33,8.5801,2,11.9-0.71
			c5.13-3.51,7.61-9.42,10.11-14.86c4.55-11.03,5.47-23.06,6.26-34.83c1.25,0.01,2.52,0.02,3.8101,0.05
			c0.1599,9.07-1.17,18.12-3.16,26.95c-2.41,8.81-5.79,17.79-12.4301,24.32c-4.1,3.96-10.2,5.84-15.73,4.17
			c-5.09-2.17-9.14-6.29-11.8-11.08C1012.85,953.97,1010.76,938.19,1010.36,922.99z"/>
		<path fill="none" stroke="#FAC2D0" stroke-width="0.0938" d="M934.29,1072.96c1.2,0.01,2.42,0.03,3.65,0.0701
			c0.66,13.5499,2.23,27.45,8.32,39.77c2.69,4.6799,5.84,9.6799,11.05,11.83c3.19,1.4399,6.83,0.15,9.67-1.52
			c4.53-3.03,7.12-8.0599,9.48-12.8099c5.19-11.6001,6.46-24.4701,7.06-37.02c1.32,0.02,2.65,0.0499,4,0.1
			c-0.47,16.22-2.67,33.35-12.12,47.03c-3.64,5.25-9.75,9.59-16.42,8.75c-5.32-0.64-9.5-4.4501-12.65-8.51
			c-5.09-6.8301-7.68-15.11-9.69-23.27C935.06,1089.34,933.89,1081.16,934.29,1072.96z"/>
		<path fill="none" stroke="#41210A" stroke-width="0.0938" d="M529.62,964.09c57.13,0.37,114.22,2.7599,171.21,6.6299
			c3.14,14.29,7.12,28.4,12.3,42.09c-67.2-4.88-134.55-7.82-201.92-8.12C518.55,991.74,524.53,978.07,529.62,964.09z"/>
		<path fill="none" stroke="#41210A" stroke-width="0.0938" d="M84.99,1033.75c-18.15,2.84-36.39,5.1899-54.46,8.55
			c-0.25-13.6901-0.21-27.41-0.03-41.09c10.51-2.18,21.41-3.36,32.08-5.06C68.96,1009.28,76.64,1021.77,84.99,1033.75z"/>
		<path fill="none" stroke="#41210A" stroke-width="0.0938" d="M1763.09,1020.94c49.03-5.37,97.9-12.2,146.62-19.89
			c0.02,13.71,0.03,27.43,0.01,41.14C1773.8,1063.8,1636.41,1076.03,1498.8199,1078.8c5.0601-3.7301,8.67-9.1101,11.03-14.88
			c3.3101-8.28,5.3-17.12,5.47-26.04c40.1101-0.89,80.1901-2.86,120.2201-5.52c2.02,9.86,5.33,20.22,13.1499,27.0601
			c3.51,3.3999,8.41,5.5,13.3601,4.86c5.6699-0.39,10.2699-4.3101,13.7-8.55c3.54-4.14,5.04-9.49,7.88-14.0699
			c5.25,5.23,10.86,10.88,18.39,12.47c5.27,1.39,11.1799-0.14,14.9199-4.1801c5.8-5.35,6.77-13.58,8.16-20.9099
			c8.61,3.8199,19.4,7.7799,28.14,2.1799C1757.63,1028.8199,1758.04,1022.34,1763.09,1020.94z"/>
		<path fill="none" stroke="#41210A" stroke-width="0.0938" d="M1166.76,1067.59c8.05-12.7999,15.03-26.27,20.9-40.21
			c67.1,6,134.4,9.74,201.75,10.98c1.2899,6.5,6.5599,12.15,13.24,13.11c7.66,1.38,14.9199-1.99,21.9-4.64
			c0.95,7.39,2.46,15.24,7.7699,20.86c4.7301,5.28,12.9501,5.6201,19.1101,2.8601c5.83-2.3,10.2899-6.8501,14.72-11.12
			c3,7.21,6.8099,14.13,12.46,19.62C1374.5601,1080.64,1270.4301,1076.53,1166.76,1067.59z"/>
		<path fill="none" stroke="#41210A" stroke-width="0.0938" d="M467.61,1134.34c120.87-1.52,241.81,6.9501,361.41,24.42
			c7.36,2.74,13.79,7.42,20.81,10.89c-2.3,4.78-5.17,9.3199-6.8,14.41c-1.75,4.98-1.9901,10.2899-2.28,15.5199
			c-47.18-6.74-94.45-13.0399-141.93-17.2999c-103.85-9.77-208.37-12.25-312.58-7.5801c3.62-2.0699,7.51-4.0199,10.19-7.3099
			c3-3.66,4.82-8.0601,6.75-12.3201c5,4.8401,10.53,10.15,17.84,10.76c6.05,0.74,11.27-3.75,13.89-8.8199
			c1.94-3.5,1.87-7.62,2.91-11.39c1.46-1.11,3.22,0.49,4.75,0.8101c6.06,2.83,13.78,3.6699,19.49-0.4
			C465.85,1143.42,466.99,1138.63,467.61,1134.34z"/>
		<path fill="none" stroke="#41210A" stroke-width="0.0938" d="M359.82,1138.11c0.54,0.26,1.62,0.77,2.16,1.03
			c1.17,4.98,1.21,10.1899,2.92,15.04c1.49,4.1699,3.42,8.21,5.86,11.9099c2.63,4.0701,7.08,6.27,10.9,9.02
			c-43.79,1.92-87.48,5.6801-131.06,10.33c10.4-10.1299,13.02-25.5699,12.56-39.5c3.01-0.2999,6.02-0.6799,9.03-0.9399
			c13.91,0.65,27.89,0.8,41.75-0.71c11.29-1.04,22.33-3.7001,33.51-5.4701"/>
		<path fill="none" stroke="#41210A" stroke-width="0.0938" d="M235.05,1187.3c-70.93,8.23-141.36,20.46-211.12,35.6699
			c0.04-13.1599-0.14-26.3099,0.1-39.46c45.43-9.6801,91.17-17.9,137.09-24.84c2.16,2.1499,4.75,4.11,7.87,4.5199
			c6.34,1.2201,12.48-1.35,18.27-3.61c1.27,5.14,1.7,10.79,5.03,15.14c2.83,3.88,7.58,6.73,12.52,5.9301
			c7.06-0.92,12.42-6.03,17.34-10.72C225.09,1176.55,228.3,1183.74,235.05,1187.3z"/>
		<path fill="none" stroke="#41210A" stroke-width="0.0938" d="M1085.4399,1206.17c20.92,2.84,41.7001,6.6699,62.6801,9.0499
			c52.11,6.25,104.4,11.28,156.83,13.78c83.9501,4.11,168.14,5.14,252.0801,0.14c23.48-1.76,47-3.08,70.46-4.98
			c12.6-3.42,25.71-3.3401,38.61-4.78c78.15-7.5,155.35-22.1901,232.5701-35.92c0.23,13.2101,0.1,26.4301,0.0599,39.64
			c-133.76,26.1901-269.49,42.88-405.75,47.55c-103.78,2.9-207.8099-0.55-311.03-11.9c-56.3199-6.05-112.33-14.72-168.02-24.99
			c4.86-4.71,8.46-10.48,10.78-16.8201c4.4401,3.3101,8.05,7.9901,13.5801,9.6001c4.86,2.0399,10.83,1.1699,14.5699-2.66
			c4.92-4.52,5.53-11.53,6.96-17.65C1067.59,1210.26,1078.39,1213.08,1085.4399,1206.17z"/>
		<path fill="none" stroke="#41210A" stroke-width="0.0938" d="M942.81,1219.21c3.05-8.26,3.89-17.09,3.55-25.84
			c12.51,0.36,24.99-0.3099,37.44-1.51c-0.27,13.52,1.6,28.1901,10.93,38.7001C977.31,1227.34,960.17,1222.77,942.81,1219.21z"/>
		<path fill="none" stroke="#FAC1D0" stroke-width="0.0938" d="M894.68,999.53c1.27-0.09,2.55-0.1801,3.84-0.2401
			c0.51,12.37,2.12,24.9,6.82,36.44c2.03,4.34,4.41,8.6801,7.89,12.05c3.09,2.5699,7.55,4.6,11.53,2.87
			c5.52-2.17,8.88-7.49,11.43-12.5701c6.05-12.0199,7.3-25.67,8.02-38.9c1.18,0.02,2.38,0.05,3.59,0.09
			c0.55,11.91-1.57,23.85-5.49,35.0699c-2.63,6.9701-6.4,13.9401-12.55,18.41c-4.98,3.78-12.28,3.1801-17.24-0.33
			c-5.18-3.67-8.32-9.4301-10.91-15.0701C896.67,1025.39,894.91,1012.39,894.68,999.53z"/>
		<path fill="none" stroke="#FAC1D1" stroke-width="0.0938" d="M971.18,999.18c1.2,0.01,2.43,0.03,3.66,0.07
			c0.67,8.61,0.95,17.34,3.33,25.71c2.31,8.3101,5.32,17,11.82,23.01c3.1,3.05,8.17,4.4501,12.12,2.2001
			c7.03-3.42,10.11-11.1801,13.02-17.9301c3.61-10.54,5.17-21.76,5.18-32.89c1.21-0.09,2.44-0.16,3.67-0.22
			c0.7001,7.97-0.48,15.99-1.96,23.82c-2.07,9.4-5.46,18.8-11.81,26.2c-3.9,4.46-10.2,7.45-16.13,5.71
			c-6.4-1.85-10.89-7.42-13.92-13.0699C973.31,1028.75,971.11,1013.76,971.18,999.18z"/>
		<path fill="none" stroke="#ADE0E6" stroke-width="0.0938" d="M191.18,1025.2c1.23-0.0199,2.47-0.0299,3.7-0.0199
			c1.11,15.7,2.66,32.5,12.31,45.59c2.94,3.78,7.6,7.7,12.74,6.1899c5.44-1.1899,8.8-6.1,11.43-10.6
			c7.02-12.4399,8.8-26.99,9.2-41.04c1.32,0,2.64,0.02,3.96,0.04c-0.12,14.4501-2.21,29.27-8.96,42.22
			c-3.3,5.15-6.85,11.14-13.13,12.9401c-4.33,1.5699-9.31,0.76-13.01-1.9401c-4.01-3.0199-7.39-6.9199-9.54-11.47
			C193.43,1054.16,191.29,1039.53,191.18,1025.2z"/>
		<path fill="none" stroke="#FEFEFF" stroke-width="0.0938" d="M347.45,1138.8199c-0.69-0.0099-2.07-0.0199-2.76-0.0299
			c5.89-1.42,11.73-3.04,17.51-4.8201c0.02,0.98,0.05,2.9301,0.06,3.9c-0.61,0.0601-1.83,0.1801-2.44,0.24
			C355.7,1138.36,351.58,1138.65,347.45,1138.8199z"/>
	</g>
</g>
</svg>
